<svg width="615" height="822" viewBox="0 0 615 822" fill="none" xmlns="http://www.w3.org/2000/svg">
<path d="M94.95 176L110.8 141H115.75L131.65 176H126.4L112.25 143.8H114.25L100.1 176H94.95ZM101.7 167.25L103.05 163.25H122.75L124.2 167.25H101.7ZM149.599 176V138.9H154.399V176H149.599ZM163.564 176V149.5H168.364V176H163.564ZM165.964 144.4C165.03 144.4 164.247 144.1 163.614 143.5C163.014 142.9 162.714 142.167 162.714 141.3C162.714 140.4 163.014 139.65 163.614 139.05C164.247 138.45 165.03 138.15 165.964 138.15C166.897 138.15 167.664 138.45 168.264 139.05C168.897 139.617 169.214 140.333 169.214 141.2C169.214 142.1 168.914 142.867 168.314 143.5C167.714 144.1 166.93 144.4 165.964 144.4ZM186.629 176.3C183.962 176.3 181.895 175.583 180.429 174.15C178.962 172.717 178.229 170.667 178.229 168V143.7H183.029V167.8C183.029 169.233 183.379 170.333 184.079 171.1C184.812 171.867 185.845 172.25 187.179 172.25C188.679 172.25 189.929 171.833 190.929 171L192.429 174.45C191.695 175.083 190.812 175.55 189.779 175.85C188.779 176.15 187.729 176.3 186.629 176.3ZM173.729 153.45V149.5H190.629V153.45H173.729ZM206.697 176.3C204.03 176.3 201.964 175.583 200.497 174.15C199.03 172.717 198.297 170.667 198.297 168V143.7H203.097V167.8C203.097 169.233 203.447 170.333 204.147 171.1C204.88 171.867 205.914 172.25 207.247 172.25C208.747 172.25 209.997 171.833 210.997 171L212.497 174.45C211.764 175.083 210.88 175.55 209.847 175.85C208.847 176.15 207.797 176.3 206.697 176.3ZM193.797 153.45V149.5H210.697V153.45H193.797ZM218.3 176V138.9H223.1V176H218.3ZM244.065 176.3C241.232 176.3 238.732 175.717 236.565 174.55C234.432 173.383 232.765 171.783 231.565 169.75C230.398 167.717 229.815 165.383 229.815 162.75C229.815 160.117 230.382 157.783 231.515 155.75C232.682 153.717 234.265 152.133 236.265 151C238.298 149.833 240.582 149.25 243.115 149.25C245.682 149.25 247.948 149.817 249.915 150.95C251.882 152.083 253.415 153.683 254.515 155.75C255.648 157.783 256.215 160.167 256.215 162.9C256.215 163.1 256.198 163.333 256.165 163.6C256.165 163.867 256.148 164.117 256.115 164.35H233.565V160.9H253.615L251.665 162.1C251.698 160.4 251.348 158.883 250.615 157.55C249.882 156.217 248.865 155.183 247.565 154.45C246.298 153.683 244.815 153.3 243.115 153.3C241.448 153.3 239.965 153.683 238.665 154.45C237.365 155.183 236.348 156.233 235.615 157.6C234.882 158.933 234.515 160.467 234.515 162.2V163C234.515 164.767 234.915 166.35 235.715 167.75C236.548 169.117 237.698 170.183 239.165 170.95C240.632 171.717 242.315 172.1 244.215 172.1C245.782 172.1 247.198 171.833 248.465 171.3C249.765 170.767 250.898 169.967 251.865 168.9L254.515 172C253.315 173.4 251.815 174.467 250.015 175.2C248.248 175.933 246.265 176.3 244.065 176.3ZM276.308 176V149.5H280.908V156.7L280.458 154.9C281.191 153.067 282.424 151.667 284.158 150.7C285.891 149.733 288.024 149.25 290.558 149.25V153.9C290.358 153.867 290.158 153.85 289.958 153.85C289.791 153.85 289.624 153.85 289.458 153.85C286.891 153.85 284.858 154.617 283.358 156.15C281.858 157.683 281.108 159.9 281.108 162.8V176H276.308ZM310.971 176V170.4L310.721 169.35V159.8C310.721 157.767 310.121 156.2 308.921 155.1C307.754 153.967 305.987 153.4 303.621 153.4C302.054 153.4 300.521 153.667 299.021 154.2C297.521 154.7 296.254 155.383 295.221 156.25L293.221 152.65C294.587 151.55 296.221 150.717 298.121 150.15C300.054 149.55 302.071 149.25 304.171 149.25C307.804 149.25 310.604 150.133 312.571 151.9C314.537 153.667 315.521 156.367 315.521 160V176H310.971ZM302.271 176.3C300.304 176.3 298.571 175.967 297.071 175.3C295.604 174.633 294.471 173.717 293.671 172.55C292.871 171.35 292.471 170 292.471 168.5C292.471 167.067 292.804 165.767 293.471 164.6C294.171 163.433 295.287 162.5 296.821 161.8C298.387 161.1 300.487 160.75 303.121 160.75H311.521V164.2H303.321C300.921 164.2 299.304 164.6 298.471 165.4C297.637 166.2 297.221 167.167 297.221 168.3C297.221 169.6 297.737 170.65 298.771 171.45C299.804 172.217 301.237 172.6 303.071 172.6C304.871 172.6 306.437 172.2 307.771 171.4C309.137 170.6 310.121 169.433 310.721 167.9L311.671 171.2C311.037 172.767 309.921 174.017 308.321 174.95C306.721 175.85 304.704 176.3 302.271 176.3ZM324.404 176V149.5H329.204V176H324.404ZM326.804 144.4C325.87 144.4 325.087 144.1 324.454 143.5C323.854 142.9 323.554 142.167 323.554 141.3C323.554 140.4 323.854 139.65 324.454 139.05C325.087 138.45 325.87 138.15 326.804 138.15C327.737 138.15 328.504 138.45 329.104 139.05C329.737 139.617 330.054 140.333 330.054 141.2C330.054 142.1 329.754 142.867 329.154 143.5C328.554 144.1 327.77 144.4 326.804 144.4ZM352.518 149.25C354.685 149.25 356.585 149.667 358.218 150.5C359.885 151.333 361.185 152.6 362.118 154.3C363.052 156 363.518 158.15 363.518 160.75V176H358.718V161.3C358.718 158.733 358.085 156.8 356.818 155.5C355.585 154.2 353.835 153.55 351.568 153.55C349.868 153.55 348.385 153.883 347.118 154.55C345.852 155.217 344.868 156.2 344.168 157.5C343.502 158.8 343.168 160.417 343.168 162.35V176H338.368V149.5H342.968V156.65L342.218 154.75C343.085 153.017 344.418 151.667 346.218 150.7C348.018 149.733 350.118 149.25 352.518 149.25ZM105.15 241L95.3 214.5H99.85L108.6 238.5H106.45L115.55 214.5H119.6L128.5 238.5H126.4L135.35 214.5H139.65L129.75 241H125.15L116.8 219.1H118.2L109.75 241H105.15ZM155.138 241.3C152.472 241.3 150.105 240.717 148.038 239.55C145.972 238.383 144.338 236.783 143.138 234.75C141.938 232.683 141.338 230.35 141.338 227.75C141.338 225.117 141.938 222.783 143.138 220.75C144.338 218.717 145.972 217.133 148.038 216C150.105 214.833 152.472 214.25 155.138 214.25C157.772 214.25 160.122 214.833 162.188 216C164.288 217.133 165.922 218.717 167.088 220.75C168.288 222.75 168.888 225.083 168.888 227.75C168.888 230.383 168.288 232.717 167.088 234.75C165.922 236.783 164.288 238.383 162.188 239.55C160.122 240.717 157.772 241.3 155.138 241.3ZM155.138 237.1C156.838 237.1 158.355 236.717 159.688 235.95C161.055 235.183 162.122 234.1 162.888 232.7C163.655 231.267 164.038 229.617 164.038 227.75C164.038 225.85 163.655 224.217 162.888 222.85C162.122 221.45 161.055 220.367 159.688 219.6C158.355 218.833 156.838 218.45 155.138 218.45C153.438 218.45 151.922 218.833 150.588 219.6C149.255 220.367 148.188 221.45 147.388 222.85C146.588 224.217 146.188 225.85 146.188 227.75C146.188 229.617 146.588 231.267 147.388 232.7C148.188 234.1 149.255 235.183 150.588 235.95C151.922 236.717 153.438 237.1 155.138 237.1ZM189.677 214.25C191.843 214.25 193.743 214.667 195.377 215.5C197.043 216.333 198.343 217.6 199.277 219.3C200.21 221 200.677 223.15 200.677 225.75V241H195.877V226.3C195.877 223.733 195.243 221.8 193.977 220.5C192.743 219.2 190.993 218.55 188.727 218.55C187.027 218.55 185.543 218.883 184.277 219.55C183.01 220.217 182.027 221.2 181.327 222.5C180.66 223.8 180.327 225.417 180.327 227.35V241H175.527V214.5H180.127V221.65L179.377 219.75C180.243 218.017 181.577 216.667 183.377 215.7C185.177 214.733 187.277 214.25 189.677 214.25ZM207.318 217.55L209.818 207.4L210.468 210.3C209.501 210.3 208.685 210 208.018 209.4C207.385 208.8 207.068 208 207.068 207C207.068 205.967 207.385 205.15 208.018 204.55C208.685 203.917 209.485 203.6 210.418 203.6C211.385 203.6 212.168 203.933 212.768 204.6C213.368 205.233 213.668 206.033 213.668 207C213.668 207.3 213.651 207.617 213.618 207.95C213.585 208.25 213.501 208.6 213.368 209C213.268 209.4 213.101 209.917 212.868 210.55L210.468 217.55H207.318ZM229.646 241.3C226.979 241.3 224.913 240.583 223.446 239.15C221.979 237.717 221.246 235.667 221.246 233V208.7H226.046V232.8C226.046 234.233 226.396 235.333 227.096 236.1C227.829 236.867 228.863 237.25 230.196 237.25C231.696 237.25 232.946 236.833 233.946 236L235.446 239.45C234.713 240.083 233.829 240.55 232.796 240.85C231.796 241.15 230.746 241.3 229.646 241.3ZM216.746 218.45V214.5H233.646V218.45H216.746ZM262.277 241.3C260.077 241.3 257.977 241 255.977 240.4C254.01 239.8 252.46 239.067 251.327 238.2L253.327 234.4C254.46 235.167 255.86 235.817 257.527 236.35C259.194 236.883 260.894 237.15 262.627 237.15C264.86 237.15 266.46 236.833 267.427 236.2C268.427 235.567 268.927 234.683 268.927 233.55C268.927 232.717 268.627 232.067 268.027 231.6C267.427 231.133 266.627 230.783 265.627 230.55C264.66 230.317 263.577 230.117 262.377 229.95C261.177 229.75 259.977 229.517 258.777 229.25C257.577 228.95 256.477 228.55 255.477 228.05C254.477 227.517 253.677 226.8 253.077 225.9C252.477 224.967 252.177 223.733 252.177 222.2C252.177 220.6 252.627 219.2 253.527 218C254.427 216.8 255.694 215.883 257.327 215.25C258.994 214.583 260.96 214.25 263.227 214.25C264.96 214.25 266.71 214.467 268.477 214.9C270.277 215.3 271.744 215.883 272.877 216.65L270.827 220.45C269.627 219.65 268.377 219.1 267.077 218.8C265.777 218.5 264.477 218.35 263.177 218.35C261.077 218.35 259.51 218.7 258.477 219.4C257.444 220.067 256.927 220.933 256.927 222C256.927 222.9 257.227 223.6 257.827 224.1C258.46 224.567 259.26 224.933 260.227 225.2C261.227 225.467 262.327 225.7 263.527 225.9C264.727 226.067 265.927 226.3 267.127 226.6C268.327 226.867 269.41 227.25 270.377 227.75C271.377 228.25 272.177 228.95 272.777 229.85C273.41 230.75 273.727 231.95 273.727 233.45C273.727 235.05 273.26 236.433 272.327 237.6C271.394 238.767 270.077 239.683 268.377 240.35C266.677 240.983 264.644 241.3 262.277 241.3ZM288.826 241.3C286.159 241.3 284.092 240.583 282.626 239.15C281.159 237.717 280.426 235.667 280.426 233V208.7H285.226V232.8C285.226 234.233 285.576 235.333 286.276 236.1C287.009 236.867 288.042 237.25 289.376 237.25C290.876 237.25 292.126 236.833 293.126 236L294.626 239.45C293.892 240.083 293.009 240.55 291.976 240.85C290.976 241.15 289.926 241.3 288.826 241.3ZM275.926 218.45V214.5H292.826V218.45H275.926ZM310.9 241.3C308.233 241.3 305.867 240.717 303.8 239.55C301.733 238.383 300.1 236.783 298.9 234.75C297.7 232.683 297.1 230.35 297.1 227.75C297.1 225.117 297.7 222.783 298.9 220.75C300.1 218.717 301.733 217.133 303.8 216C305.867 214.833 308.233 214.25 310.9 214.25C313.533 214.25 315.883 214.833 317.95 216C320.05 217.133 321.683 218.717 322.85 220.75C324.05 222.75 324.65 225.083 324.65 227.75C324.65 230.383 324.05 232.717 322.85 234.75C321.683 236.783 320.05 238.383 317.95 239.55C315.883 240.717 313.533 241.3 310.9 241.3ZM310.9 237.1C312.6 237.1 314.117 236.717 315.45 235.95C316.817 235.183 317.883 234.1 318.65 232.7C319.417 231.267 319.8 229.617 319.8 227.75C319.8 225.85 319.417 224.217 318.65 222.85C317.883 221.45 316.817 220.367 315.45 219.6C314.117 218.833 312.6 218.45 310.9 218.45C309.2 218.45 307.683 218.833 306.35 219.6C305.017 220.367 303.95 221.45 303.15 222.85C302.35 224.217 301.95 225.85 301.95 227.75C301.95 229.617 302.35 231.267 303.15 232.7C303.95 234.1 305.017 235.183 306.35 235.95C307.683 236.717 309.2 237.1 310.9 237.1ZM345.338 241.3C343.138 241.3 341.122 240.8 339.288 239.8C337.488 238.767 336.038 237.25 334.938 235.25C333.872 233.25 333.338 230.75 333.338 227.75C333.338 224.75 333.855 222.25 334.888 220.25C335.955 218.25 337.388 216.75 339.188 215.75C341.022 214.75 343.072 214.25 345.338 214.25C347.938 214.25 350.238 214.817 352.238 215.95C354.238 217.083 355.822 218.667 356.988 220.7C358.155 222.7 358.738 225.05 358.738 227.75C358.738 230.45 358.155 232.817 356.988 234.85C355.822 236.883 354.238 238.467 352.238 239.6C350.238 240.733 347.938 241.3 345.338 241.3ZM331.288 250.7V214.5H335.888V221.65L335.588 227.8L336.088 233.95V250.7H331.288ZM344.938 237.1C346.638 237.1 348.155 236.717 349.488 235.95C350.855 235.183 351.922 234.1 352.688 232.7C353.488 231.267 353.888 229.617 353.888 227.75C353.888 225.85 353.488 224.217 352.688 222.85C351.922 221.45 350.855 220.367 349.488 219.6C348.155 218.833 346.638 218.45 344.938 218.45C343.272 218.45 341.755 218.833 340.388 219.6C339.055 220.367 337.988 221.45 337.188 222.85C336.422 224.217 336.038 225.85 336.038 227.75C336.038 229.617 336.422 231.267 337.188 232.7C337.988 234.1 339.055 235.183 340.388 235.95C341.755 236.717 343.272 237.1 344.938 237.1ZM379.948 251C378.681 251 377.448 250.783 376.248 250.35C375.048 249.95 374.015 249.35 373.148 248.55L375.198 244.95C375.865 245.583 376.598 246.067 377.398 246.4C378.198 246.733 379.048 246.9 379.948 246.9C381.115 246.9 382.081 246.6 382.848 246C383.615 245.4 384.331 244.333 384.998 242.8L386.648 239.15L387.148 238.55L397.548 214.5H402.248L389.398 243.65C388.631 245.517 387.765 246.983 386.798 248.05C385.865 249.117 384.831 249.867 383.698 250.3C382.565 250.767 381.315 251 379.948 251ZM386.248 241.85L374.148 214.5H379.148L389.448 238.1L386.248 241.85ZM417.345 241.3C414.679 241.3 412.312 240.717 410.245 239.55C408.179 238.383 406.545 236.783 405.345 234.75C404.145 232.683 403.545 230.35 403.545 227.75C403.545 225.117 404.145 222.783 405.345 220.75C406.545 218.717 408.179 217.133 410.245 216C412.312 214.833 414.679 214.25 417.345 214.25C419.979 214.25 422.329 214.833 424.395 216C426.495 217.133 428.129 218.717 429.295 220.75C430.495 222.75 431.095 225.083 431.095 227.75C431.095 230.383 430.495 232.717 429.295 234.75C428.129 236.783 426.495 238.383 424.395 239.55C422.329 240.717 419.979 241.3 417.345 241.3ZM417.345 237.1C419.045 237.1 420.562 236.717 421.895 235.95C423.262 235.183 424.329 234.1 425.095 232.7C425.862 231.267 426.245 229.617 426.245 227.75C426.245 225.85 425.862 224.217 425.095 222.85C424.329 221.45 423.262 220.367 421.895 219.6C420.562 218.833 419.045 218.45 417.345 218.45C415.645 218.45 414.129 218.833 412.795 219.6C411.462 220.367 410.395 221.45 409.595 222.85C408.795 224.217 408.395 225.85 408.395 227.75C408.395 229.617 408.795 231.267 409.595 232.7C410.395 234.1 411.462 235.183 412.795 235.95C414.129 236.717 415.645 237.1 417.345 237.1ZM448.884 241.3C446.617 241.3 444.617 240.883 442.884 240.05C441.184 239.217 439.85 237.95 438.884 236.25C437.95 234.517 437.484 232.35 437.484 229.75V214.5H442.284V229.2C442.284 231.8 442.9 233.75 444.134 235.05C445.4 236.35 447.167 237 449.434 237C451.1 237 452.55 236.667 453.784 236C455.017 235.3 455.967 234.3 456.634 233C457.3 231.667 457.634 230.067 457.634 228.2V214.5H462.434V241H457.884V233.85L458.634 235.75C457.767 237.517 456.467 238.883 454.734 239.85C453 240.817 451.05 241.3 448.884 241.3ZM100.25 306V277.15C100.25 274.55 101 272.483 102.5 270.95C104.033 269.383 106.2 268.6 109 268.6C110.033 268.6 111.017 268.733 111.95 269C112.917 269.233 113.733 269.617 114.4 270.15L112.95 273.8C112.45 273.4 111.883 273.1 111.25 272.9C110.617 272.667 109.95 272.55 109.25 272.55C107.85 272.55 106.783 272.95 106.05 273.75C105.317 274.517 104.95 275.667 104.95 277.2V280.75L105.05 282.95V306H100.25ZM95.75 283.45V279.5H112.65V283.45H95.75ZM117.177 306V279.5H121.777V286.7L121.327 284.9C122.06 283.067 123.294 281.667 125.027 280.7C126.76 279.733 128.894 279.25 131.427 279.25V283.9C131.227 283.867 131.027 283.85 130.827 283.85C130.66 283.85 130.494 283.85 130.327 283.85C127.76 283.85 125.727 284.617 124.227 286.15C122.727 287.683 121.977 289.9 121.977 292.8V306H117.177ZM148.449 306.3C145.782 306.3 143.415 305.717 141.349 304.55C139.282 303.383 137.649 301.783 136.449 299.75C135.249 297.683 134.649 295.35 134.649 292.75C134.649 290.117 135.249 287.783 136.449 285.75C137.649 283.717 139.282 282.133 141.349 281C143.415 279.833 145.782 279.25 148.449 279.25C151.082 279.25 153.432 279.833 155.499 281C157.599 282.133 159.232 283.717 160.399 285.75C161.599 287.75 162.199 290.083 162.199 292.75C162.199 295.383 161.599 297.717 160.399 299.75C159.232 301.783 157.599 303.383 155.499 304.55C153.432 305.717 151.082 306.3 148.449 306.3ZM148.449 302.1C150.149 302.1 151.665 301.717 152.999 300.95C154.365 300.183 155.432 299.1 156.199 297.7C156.965 296.267 157.349 294.617 157.349 292.75C157.349 290.85 156.965 289.217 156.199 287.85C155.432 286.45 154.365 285.367 152.999 284.6C151.665 283.833 150.149 283.45 148.449 283.45C146.749 283.45 145.232 283.833 143.899 284.6C142.565 285.367 141.499 286.45 140.699 287.85C139.899 289.217 139.499 290.85 139.499 292.75C139.499 294.617 139.899 296.267 140.699 297.7C141.499 299.1 142.565 300.183 143.899 300.95C145.232 301.717 146.749 302.1 148.449 302.1ZM201.987 279.25C204.12 279.25 206.004 279.667 207.637 280.5C209.27 281.333 210.537 282.6 211.437 284.3C212.37 286 212.837 288.15 212.837 290.75V306H208.037V291.3C208.037 288.733 207.437 286.8 206.237 285.5C205.037 284.2 203.354 283.55 201.187 283.55C199.587 283.55 198.187 283.883 196.987 284.55C195.787 285.217 194.854 286.2 194.187 287.5C193.554 288.8 193.237 290.417 193.237 292.35V306H188.437V291.3C188.437 288.733 187.837 286.8 186.637 285.5C185.47 284.2 183.787 283.55 181.587 283.55C180.02 283.55 178.637 283.883 177.437 284.55C176.237 285.217 175.304 286.2 174.637 287.5C173.97 288.8 173.637 290.417 173.637 292.35V306H168.837V279.5H173.437V286.55L172.687 284.75C173.52 283.017 174.804 281.667 176.537 280.7C178.27 279.733 180.287 279.25 182.587 279.25C185.12 279.25 187.304 279.883 189.137 281.15C190.97 282.383 192.17 284.267 192.737 286.8L190.787 286C191.587 283.967 192.987 282.333 194.987 281.1C196.987 279.867 199.32 279.25 201.987 279.25ZM246.697 316C244.264 316 241.897 315.65 239.597 314.95C237.33 314.283 235.48 313.317 234.047 312.05L236.347 308.35C237.58 309.417 239.097 310.25 240.897 310.85C242.697 311.483 244.58 311.8 246.547 311.8C249.68 311.8 251.98 311.067 253.447 309.6C254.914 308.133 255.647 305.9 255.647 302.9V297.3L256.147 292.05L255.897 286.75V279.5H260.447V302.4C260.447 307.067 259.28 310.5 256.947 312.7C254.614 314.9 251.197 316 246.697 316ZM246.097 304.9C243.53 304.9 241.23 304.367 239.197 303.3C237.197 302.2 235.597 300.683 234.397 298.75C233.23 296.817 232.647 294.583 232.647 292.05C232.647 289.483 233.23 287.25 234.397 285.35C235.597 283.417 237.197 281.917 239.197 280.85C241.23 279.783 243.53 279.25 246.097 279.25C248.364 279.25 250.43 279.717 252.297 280.65C254.164 281.55 255.647 282.95 256.747 284.85C257.88 286.75 258.447 289.15 258.447 292.05C258.447 294.917 257.88 297.3 256.747 299.2C255.647 301.1 254.164 302.533 252.297 303.5C250.43 304.433 248.364 304.9 246.097 304.9ZM246.647 300.7C248.414 300.7 249.98 300.333 251.347 299.6C252.714 298.867 253.78 297.85 254.547 296.55C255.347 295.25 255.747 293.75 255.747 292.05C255.747 290.35 255.347 288.85 254.547 287.55C253.78 286.25 252.714 285.25 251.347 284.55C249.98 283.817 248.414 283.45 246.647 283.45C244.88 283.45 243.297 283.817 241.897 284.55C240.53 285.25 239.447 286.25 238.647 287.55C237.88 288.85 237.497 290.35 237.497 292.05C237.497 293.75 237.88 295.25 238.647 296.55C239.447 297.85 240.53 298.867 241.897 299.6C243.297 300.333 244.88 300.7 246.647 300.7ZM281.418 306.3C278.585 306.3 276.085 305.717 273.918 304.55C271.785 303.383 270.118 301.783 268.918 299.75C267.752 297.717 267.168 295.383 267.168 292.75C267.168 290.117 267.735 287.783 268.868 285.75C270.035 283.717 271.618 282.133 273.618 281C275.652 279.833 277.935 279.25 280.468 279.25C283.035 279.25 285.302 279.817 287.268 280.95C289.235 282.083 290.768 283.683 291.868 285.75C293.002 287.783 293.568 290.167 293.568 292.9C293.568 293.1 293.552 293.333 293.518 293.6C293.518 293.867 293.502 294.117 293.468 294.35H270.918V290.9H290.968L289.018 292.1C289.052 290.4 288.702 288.883 287.968 287.55C287.235 286.217 286.218 285.183 284.918 284.45C283.652 283.683 282.168 283.3 280.468 283.3C278.802 283.3 277.318 283.683 276.018 284.45C274.718 285.183 273.702 286.233 272.968 287.6C272.235 288.933 271.868 290.467 271.868 292.2V293C271.868 294.767 272.268 296.35 273.068 297.75C273.902 299.117 275.052 300.183 276.518 300.95C277.985 301.717 279.668 302.1 281.568 302.1C283.135 302.1 284.552 301.833 285.818 301.3C287.118 300.767 288.252 299.967 289.218 298.9L291.868 302C290.668 303.4 289.168 304.467 287.368 305.2C285.602 305.933 283.618 306.3 281.418 306.3ZM309.334 306.3C306.667 306.3 304.6 305.583 303.134 304.15C301.667 302.717 300.934 300.667 300.934 298V273.7H305.734V297.8C305.734 299.233 306.084 300.333 306.784 301.1C307.517 301.867 308.55 302.25 309.884 302.25C311.384 302.25 312.634 301.833 313.634 301L315.134 304.45C314.4 305.083 313.517 305.55 312.484 305.85C311.484 306.15 310.434 306.3 309.334 306.3ZM296.434 283.45V279.5H313.334V283.45H296.434ZM329.402 306.3C326.735 306.3 324.669 305.583 323.202 304.15C321.735 302.717 321.002 300.667 321.002 298V273.7H325.802V297.8C325.802 299.233 326.152 300.333 326.852 301.1C327.585 301.867 328.619 302.25 329.952 302.25C331.452 302.25 332.702 301.833 333.702 301L335.202 304.45C334.469 305.083 333.585 305.55 332.552 305.85C331.552 306.15 330.502 306.3 329.402 306.3ZM316.502 283.45V279.5H333.402V283.45H316.502ZM341.005 306V279.5H345.805V306H341.005ZM343.405 274.4C342.472 274.4 341.688 274.1 341.055 273.5C340.455 272.9 340.155 272.167 340.155 271.3C340.155 270.4 340.455 269.65 341.055 269.05C341.688 268.45 342.472 268.15 343.405 268.15C344.338 268.15 345.105 268.45 345.705 269.05C346.338 269.617 346.655 270.333 346.655 271.2C346.655 272.1 346.355 272.867 345.755 273.5C345.155 274.1 344.372 274.4 343.405 274.4ZM369.12 279.25C371.287 279.25 373.187 279.667 374.82 280.5C376.487 281.333 377.787 282.6 378.72 284.3C379.653 286 380.12 288.15 380.12 290.75V306H375.32V291.3C375.32 288.733 374.687 286.8 373.42 285.5C372.187 284.2 370.437 283.55 368.17 283.55C366.47 283.55 364.987 283.883 363.72 284.55C362.453 285.217 361.47 286.2 360.77 287.5C360.103 288.8 359.77 290.417 359.77 292.35V306H354.97V279.5H359.57V286.65L358.82 284.75C359.687 283.017 361.02 281.667 362.82 280.7C364.62 279.733 366.72 279.25 369.12 279.25ZM400.603 316C398.17 316 395.803 315.65 393.503 314.95C391.236 314.283 389.386 313.317 387.953 312.05L390.253 308.35C391.486 309.417 393.003 310.25 394.803 310.85C396.603 311.483 398.486 311.8 400.453 311.8C403.586 311.8 405.886 311.067 407.353 309.6C408.82 308.133 409.553 305.9 409.553 302.9V297.3L410.053 292.05L409.803 286.75V279.5H414.353V302.4C414.353 307.067 413.186 310.5 410.853 312.7C408.52 314.9 405.103 316 400.603 316ZM400.003 304.9C397.436 304.9 395.136 304.367 393.103 303.3C391.103 302.2 389.503 300.683 388.303 298.75C387.136 296.817 386.553 294.583 386.553 292.05C386.553 289.483 387.136 287.25 388.303 285.35C389.503 283.417 391.103 281.917 393.103 280.85C395.136 279.783 397.436 279.25 400.003 279.25C402.27 279.25 404.336 279.717 406.203 280.65C408.07 281.55 409.553 282.95 410.653 284.85C411.786 286.75 412.353 289.15 412.353 292.05C412.353 294.917 411.786 297.3 410.653 299.2C409.553 301.1 408.07 302.533 406.203 303.5C404.336 304.433 402.27 304.9 400.003 304.9ZM400.553 300.7C402.32 300.7 403.886 300.333 405.253 299.6C406.62 298.867 407.686 297.85 408.453 296.55C409.253 295.25 409.653 293.75 409.653 292.05C409.653 290.35 409.253 288.85 408.453 287.55C407.686 286.25 406.62 285.25 405.253 284.55C403.886 283.817 402.32 283.45 400.553 283.45C398.786 283.45 397.203 283.817 395.803 284.55C394.436 285.25 393.353 286.25 392.553 287.55C391.786 288.85 391.403 290.35 391.403 292.05C391.403 293.75 391.786 295.25 392.553 296.55C393.353 297.85 394.436 298.867 395.803 299.6C397.203 300.333 398.786 300.7 400.553 300.7ZM110.5 371.3C107.933 371.3 105.633 370.733 103.6 369.6C101.6 368.467 100.017 366.883 98.85 364.85C97.6833 362.817 97.1 360.45 97.1 357.75C97.1 355.05 97.6833 352.7 98.85 350.7C100.017 348.667 101.6 347.083 103.6 345.95C105.633 344.817 107.933 344.25 110.5 344.25C112.733 344.25 114.75 344.75 116.55 345.75C118.35 346.75 119.783 348.25 120.85 350.25C121.95 352.25 122.5 354.75 122.5 357.75C122.5 360.75 121.967 363.25 120.9 365.25C119.867 367.25 118.45 368.767 116.65 369.8C114.85 370.8 112.8 371.3 110.5 371.3ZM110.9 367.1C112.567 367.1 114.067 366.717 115.4 365.95C116.767 365.183 117.833 364.1 118.6 362.7C119.4 361.267 119.8 359.617 119.8 357.75C119.8 355.85 119.4 354.217 118.6 352.85C117.833 351.45 116.767 350.367 115.4 349.6C114.067 348.833 112.567 348.45 110.9 348.45C109.2 348.45 107.683 348.833 106.35 349.6C105.017 350.367 103.95 351.45 103.15 352.85C102.35 354.217 101.95 355.85 101.95 357.75C101.95 359.617 102.35 361.267 103.15 362.7C103.95 364.1 105.017 365.183 106.35 365.95C107.683 366.717 109.2 367.1 110.9 367.1ZM119.95 371V363.85L120.25 357.7L119.75 351.55V333.9H124.55V371H119.95ZM133.632 371V344.5H138.232V351.7L137.782 349.9C138.515 348.067 139.749 346.667 141.482 345.7C143.215 344.733 145.349 344.25 147.882 344.25V348.9C147.682 348.867 147.482 348.85 147.282 348.85C147.115 348.85 146.949 348.85 146.782 348.85C144.215 348.85 142.182 349.617 140.682 351.15C139.182 352.683 138.432 354.9 138.432 357.8V371H133.632ZM165.354 371.3C162.521 371.3 160.021 370.717 157.854 369.55C155.721 368.383 154.054 366.783 152.854 364.75C151.687 362.717 151.104 360.383 151.104 357.75C151.104 355.117 151.671 352.783 152.804 350.75C153.971 348.717 155.554 347.133 157.554 346C159.587 344.833 161.871 344.25 164.404 344.25C166.971 344.25 169.237 344.817 171.204 345.95C173.171 347.083 174.704 348.683 175.804 350.75C176.937 352.783 177.504 355.167 177.504 357.9C177.504 358.1 177.487 358.333 177.454 358.6C177.454 358.867 177.437 359.117 177.404 359.35H154.854V355.9H174.904L172.954 357.1C172.987 355.4 172.637 353.883 171.904 352.55C171.171 351.217 170.154 350.183 168.854 349.45C167.587 348.683 166.104 348.3 164.404 348.3C162.737 348.3 161.254 348.683 159.954 349.45C158.654 350.183 157.637 351.233 156.904 352.6C156.171 353.933 155.804 355.467 155.804 357.2V358C155.804 359.767 156.204 361.35 157.004 362.75C157.837 364.117 158.987 365.183 160.454 365.95C161.921 366.717 163.604 367.1 165.504 367.1C167.071 367.1 168.487 366.833 169.754 366.3C171.054 365.767 172.187 364.967 173.154 363.9L175.804 367C174.604 368.4 173.104 369.467 171.304 370.2C169.537 370.933 167.554 371.3 165.354 371.3ZM191.769 371.3C189.569 371.3 187.469 371 185.469 370.4C183.502 369.8 181.952 369.067 180.819 368.2L182.819 364.4C183.952 365.167 185.352 365.817 187.019 366.35C188.686 366.883 190.386 367.15 192.119 367.15C194.352 367.15 195.952 366.833 196.919 366.2C197.919 365.567 198.419 364.683 198.419 363.55C198.419 362.717 198.119 362.067 197.519 361.6C196.919 361.133 196.119 360.783 195.119 360.55C194.152 360.317 193.069 360.117 191.869 359.95C190.669 359.75 189.469 359.517 188.269 359.25C187.069 358.95 185.969 358.55 184.969 358.05C183.969 357.517 183.169 356.8 182.569 355.9C181.969 354.967 181.669 353.733 181.669 352.2C181.669 350.6 182.119 349.2 183.019 348C183.919 346.8 185.186 345.883 186.819 345.25C188.486 344.583 190.452 344.25 192.719 344.25C194.452 344.25 196.202 344.467 197.969 344.9C199.769 345.3 201.236 345.883 202.369 346.65L200.319 350.45C199.119 349.65 197.869 349.1 196.569 348.8C195.269 348.5 193.969 348.35 192.669 348.35C190.569 348.35 189.002 348.7 187.969 349.4C186.936 350.067 186.419 350.933 186.419 352C186.419 352.9 186.719 353.6 187.319 354.1C187.952 354.567 188.752 354.933 189.719 355.2C190.719 355.467 191.819 355.7 193.019 355.9C194.219 356.067 195.419 356.3 196.619 356.6C197.819 356.867 198.902 357.25 199.869 357.75C200.869 358.25 201.669 358.95 202.269 359.85C202.902 360.75 203.219 361.95 203.219 363.45C203.219 365.05 202.752 366.433 201.819 367.6C200.886 368.767 199.569 369.683 197.869 370.35C196.169 370.983 194.136 371.3 191.769 371.3ZM216.818 371.3C214.618 371.3 212.518 371 210.518 370.4C208.551 369.8 207.001 369.067 205.868 368.2L207.868 364.4C209.001 365.167 210.401 365.817 212.068 366.35C213.735 366.883 215.435 367.15 217.168 367.15C219.401 367.15 221.001 366.833 221.968 366.2C222.968 365.567 223.468 364.683 223.468 363.55C223.468 362.717 223.168 362.067 222.568 361.6C221.968 361.133 221.168 360.783 220.168 360.55C219.201 360.317 218.118 360.117 216.918 359.95C215.718 359.75 214.518 359.517 213.318 359.25C212.118 358.95 211.018 358.55 210.018 358.05C209.018 357.517 208.218 356.8 207.618 355.9C207.018 354.967 206.718 353.733 206.718 352.2C206.718 350.6 207.168 349.2 208.068 348C208.968 346.8 210.235 345.883 211.868 345.25C213.535 344.583 215.501 344.25 217.768 344.25C219.501 344.25 221.251 344.467 223.018 344.9C224.818 345.3 226.285 345.883 227.418 346.65L225.368 350.45C224.168 349.65 222.918 349.1 221.618 348.8C220.318 348.5 219.018 348.35 217.718 348.35C215.618 348.35 214.051 348.7 213.018 349.4C211.985 350.067 211.468 350.933 211.468 352C211.468 352.9 211.768 353.6 212.368 354.1C213.001 354.567 213.801 354.933 214.768 355.2C215.768 355.467 216.868 355.7 218.068 355.9C219.268 356.067 220.468 356.3 221.668 356.6C222.868 356.867 223.951 357.25 224.918 357.75C225.918 358.25 226.718 358.95 227.318 359.85C227.951 360.75 228.268 361.95 228.268 363.45C228.268 365.05 227.801 366.433 226.868 367.6C225.935 368.767 224.618 369.683 222.918 370.35C221.218 370.983 219.185 371.3 216.818 371.3ZM246.067 371.3C243.233 371.3 240.733 370.717 238.567 369.55C236.433 368.383 234.767 366.783 233.567 364.75C232.4 362.717 231.817 360.383 231.817 357.75C231.817 355.117 232.383 352.783 233.517 350.75C234.683 348.717 236.267 347.133 238.267 346C240.3 344.833 242.583 344.25 245.117 344.25C247.683 344.25 249.95 344.817 251.917 345.95C253.883 347.083 255.417 348.683 256.517 350.75C257.65 352.783 258.217 355.167 258.217 357.9C258.217 358.1 258.2 358.333 258.167 358.6C258.167 358.867 258.15 359.117 258.117 359.35H235.567V355.9H255.617L253.667 357.1C253.7 355.4 253.35 353.883 252.617 352.55C251.883 351.217 250.867 350.183 249.567 349.45C248.3 348.683 246.817 348.3 245.117 348.3C243.45 348.3 241.967 348.683 240.667 349.45C239.367 350.183 238.35 351.233 237.617 352.6C236.883 353.933 236.517 355.467 236.517 357.2V358C236.517 359.767 236.917 361.35 237.717 362.75C238.55 364.117 239.7 365.183 241.167 365.95C242.633 366.717 244.317 367.1 246.217 367.1C247.783 367.1 249.2 366.833 250.467 366.3C251.767 365.767 252.9 364.967 253.867 363.9L256.517 367C255.317 368.4 253.817 369.467 252.017 370.2C250.25 370.933 248.267 371.3 246.067 371.3ZM275.832 371.3C273.265 371.3 270.965 370.733 268.932 369.6C266.932 368.467 265.349 366.883 264.182 364.85C263.015 362.817 262.432 360.45 262.432 357.75C262.432 355.05 263.015 352.7 264.182 350.7C265.349 348.667 266.932 347.083 268.932 345.95C270.965 344.817 273.265 344.25 275.832 344.25C278.065 344.25 280.082 344.75 281.882 345.75C283.682 346.75 285.115 348.25 286.182 350.25C287.282 352.25 287.832 354.75 287.832 357.75C287.832 360.75 287.299 363.25 286.232 365.25C285.199 367.25 283.782 368.767 281.982 369.8C280.182 370.8 278.132 371.3 275.832 371.3ZM276.232 367.1C277.899 367.1 279.399 366.717 280.732 365.95C282.099 365.183 283.165 364.1 283.932 362.7C284.732 361.267 285.132 359.617 285.132 357.75C285.132 355.85 284.732 354.217 283.932 352.85C283.165 351.45 282.099 350.367 280.732 349.6C279.399 348.833 277.899 348.45 276.232 348.45C274.532 348.45 273.015 348.833 271.682 349.6C270.349 350.367 269.282 351.45 268.482 352.85C267.682 354.217 267.282 355.85 267.282 357.75C267.282 359.617 267.682 361.267 268.482 362.7C269.282 364.1 270.349 365.183 271.682 365.95C273.015 366.717 274.532 367.1 276.232 367.1ZM285.282 371V363.85L285.582 357.7L285.082 351.55V333.9H289.882V371H285.282ZM300.114 371.3C299.181 371.3 298.381 370.983 297.714 370.35C297.047 369.683 296.714 368.85 296.714 367.85C296.714 366.85 297.047 366.033 297.714 365.4C298.381 364.767 299.181 364.45 300.114 364.45C301.014 364.45 301.781 364.767 302.414 365.4C303.081 366.033 303.414 366.85 303.414 367.85C303.414 368.85 303.081 369.683 302.414 370.35C301.781 370.983 301.014 371.3 300.114 371.3Z" fill="#AB5B5B"/>
<path d="M116.05 657.4C113.35 657.4 110.867 656.967 108.6 656.1C106.333 655.2 104.367 653.95 102.7 652.35C101.033 650.717 99.7333 648.817 98.8 646.65C97.8667 644.483 97.4 642.1 97.4 639.5C97.4 636.9 97.8667 634.517 98.8 632.35C99.7333 630.183 101.033 628.3 102.7 626.7C104.4 625.067 106.383 623.817 108.65 622.95C110.917 622.05 113.417 621.6 116.15 621.6C118.917 621.6 121.45 622.05 123.75 622.95C126.05 623.85 128 625.2 129.6 627L126.5 630.1C125.067 628.7 123.5 627.683 121.8 627.05C120.133 626.383 118.317 626.05 116.35 626.05C114.35 626.05 112.483 626.383 110.75 627.05C109.05 627.717 107.567 628.65 106.3 629.85C105.067 631.05 104.1 632.483 103.4 634.15C102.733 635.783 102.4 637.567 102.4 639.5C102.4 641.4 102.733 643.183 103.4 644.85C104.1 646.483 105.067 647.917 106.3 649.15C107.567 650.35 109.05 651.283 110.75 651.95C112.45 652.617 114.3 652.95 116.3 652.95C118.167 652.95 119.95 652.667 121.65 652.1C123.383 651.5 124.983 650.517 126.45 649.15L129.3 652.95C127.567 654.417 125.533 655.533 123.2 656.3C120.9 657.033 118.517 657.4 116.05 657.4ZM124.5 652.3V639.3H129.3V652.95L124.5 652.3ZM149.973 657.3C147.14 657.3 144.64 656.717 142.473 655.55C140.34 654.383 138.673 652.783 137.473 650.75C136.306 648.717 135.723 646.383 135.723 643.75C135.723 641.117 136.29 638.783 137.423 636.75C138.59 634.717 140.173 633.133 142.173 632C144.206 630.833 146.49 630.25 149.023 630.25C151.59 630.25 153.856 630.817 155.823 631.95C157.79 633.083 159.323 634.683 160.423 636.75C161.556 638.783 162.123 641.167 162.123 643.9C162.123 644.1 162.106 644.333 162.073 644.6C162.073 644.867 162.056 645.117 162.023 645.35H139.473V641.9H159.523L157.573 643.1C157.606 641.4 157.256 639.883 156.523 638.55C155.79 637.217 154.773 636.183 153.473 635.45C152.206 634.683 150.723 634.3 149.023 634.3C147.356 634.3 145.873 634.683 144.573 635.45C143.273 636.183 142.256 637.233 141.523 638.6C140.79 639.933 140.423 641.467 140.423 643.2V644C140.423 645.767 140.823 647.35 141.623 648.75C142.456 650.117 143.606 651.183 145.073 651.95C146.54 652.717 148.223 653.1 150.123 653.1C151.69 653.1 153.106 652.833 154.373 652.3C155.673 651.767 156.806 650.967 157.773 649.9L160.423 653C159.223 654.4 157.723 655.467 155.923 656.2C154.156 656.933 152.173 657.3 149.973 657.3ZM177.888 657.3C175.222 657.3 173.155 656.583 171.688 655.15C170.222 653.717 169.488 651.667 169.488 649V624.7H174.288V648.8C174.288 650.233 174.638 651.333 175.338 652.1C176.072 652.867 177.105 653.25 178.438 653.25C179.938 653.25 181.188 652.833 182.188 652L183.688 655.45C182.955 656.083 182.072 656.55 181.038 656.85C180.038 657.15 178.988 657.3 177.888 657.3ZM164.988 634.45V630.5H181.888V634.45H164.988ZM202.919 657V630.5H207.719V657H202.919ZM205.319 625.4C204.386 625.4 203.602 625.1 202.969 624.5C202.369 623.9 202.069 623.167 202.069 622.3C202.069 621.4 202.369 620.65 202.969 620.05C203.602 619.45 204.386 619.15 205.319 619.15C206.252 619.15 207.019 619.45 207.619 620.05C208.252 620.617 208.569 621.333 208.569 622.2C208.569 623.1 208.269 623.867 207.669 624.5C207.069 625.1 206.286 625.4 205.319 625.4ZM231.034 630.25C233.201 630.25 235.101 630.667 236.734 631.5C238.401 632.333 239.701 633.6 240.634 635.3C241.567 637 242.034 639.15 242.034 641.75V657H237.234V642.3C237.234 639.733 236.601 637.8 235.334 636.5C234.101 635.2 232.351 634.55 230.084 634.55C228.384 634.55 226.901 634.883 225.634 635.55C224.367 636.217 223.384 637.2 222.684 638.5C222.017 639.8 221.684 641.417 221.684 643.35V657H216.884V630.5H221.484V637.65L220.734 635.75C221.601 634.017 222.934 632.667 224.734 631.7C226.534 630.733 228.634 630.25 231.034 630.25ZM258.517 657.3C256.317 657.3 254.217 657 252.217 656.4C250.251 655.8 248.701 655.067 247.567 654.2L249.567 650.4C250.701 651.167 252.101 651.817 253.767 652.35C255.434 652.883 257.134 653.15 258.867 653.15C261.101 653.15 262.701 652.833 263.667 652.2C264.667 651.567 265.167 650.683 265.167 649.55C265.167 648.717 264.867 648.067 264.267 647.6C263.667 647.133 262.867 646.783 261.867 646.55C260.901 646.317 259.817 646.117 258.617 645.95C257.417 645.75 256.217 645.517 255.017 645.25C253.817 644.95 252.717 644.55 251.717 644.05C250.717 643.517 249.917 642.8 249.317 641.9C248.717 640.967 248.417 639.733 248.417 638.2C248.417 636.6 248.867 635.2 249.767 634C250.667 632.8 251.934 631.883 253.567 631.25C255.234 630.583 257.201 630.25 259.467 630.25C261.201 630.25 262.951 630.467 264.717 630.9C266.517 631.3 267.984 631.883 269.117 632.65L267.067 636.45C265.867 635.65 264.617 635.1 263.317 634.8C262.017 634.5 260.717 634.35 259.417 634.35C257.317 634.35 255.751 634.7 254.717 635.4C253.684 636.067 253.167 636.933 253.167 638C253.167 638.9 253.467 639.6 254.067 640.1C254.701 640.567 255.501 640.933 256.467 641.2C257.467 641.467 258.567 641.7 259.767 641.9C260.967 642.067 262.167 642.3 263.367 642.6C264.567 642.867 265.651 643.25 266.617 643.75C267.617 644.25 268.417 644.95 269.017 645.85C269.651 646.75 269.967 647.95 269.967 649.45C269.967 651.05 269.501 652.433 268.567 653.6C267.634 654.767 266.317 655.683 264.617 656.35C262.917 656.983 260.884 657.3 258.517 657.3ZM290.016 657.3C287.816 657.3 285.799 656.8 283.966 655.8C282.166 654.767 280.716 653.25 279.616 651.25C278.549 649.25 278.016 646.75 278.016 643.75C278.016 640.75 278.533 638.25 279.566 636.25C280.633 634.25 282.066 632.75 283.866 631.75C285.699 630.75 287.749 630.25 290.016 630.25C292.616 630.25 294.916 630.817 296.916 631.95C298.916 633.083 300.499 634.667 301.666 636.7C302.833 638.7 303.416 641.05 303.416 643.75C303.416 646.45 302.833 648.817 301.666 650.85C300.499 652.883 298.916 654.467 296.916 655.6C294.916 656.733 292.616 657.3 290.016 657.3ZM275.966 666.7V630.5H280.566V637.65L280.266 643.8L280.766 649.95V666.7H275.966ZM289.616 653.1C291.316 653.1 292.833 652.717 294.166 651.95C295.533 651.183 296.599 650.1 297.366 648.7C298.166 647.267 298.566 645.617 298.566 643.75C298.566 641.85 298.166 640.217 297.366 638.85C296.599 637.45 295.533 636.367 294.166 635.6C292.833 634.833 291.316 634.45 289.616 634.45C287.949 634.45 286.433 634.833 285.066 635.6C283.733 636.367 282.666 637.45 281.866 638.85C281.099 640.217 280.716 641.85 280.716 643.75C280.716 645.617 281.099 647.267 281.866 648.7C282.666 650.1 283.733 651.183 285.066 651.95C286.433 652.717 287.949 653.1 289.616 653.1ZM310.048 657V630.5H314.848V657H310.048ZM312.448 625.4C311.515 625.4 310.731 625.1 310.098 624.5C309.498 623.9 309.198 623.167 309.198 622.3C309.198 621.4 309.498 620.65 310.098 620.05C310.731 619.45 311.515 619.15 312.448 619.15C313.381 619.15 314.148 619.45 314.748 620.05C315.381 620.617 315.698 621.333 315.698 622.2C315.698 623.1 315.398 623.867 314.798 624.5C314.198 625.1 313.415 625.4 312.448 625.4ZM324.013 657V630.5H328.613V637.7L328.163 635.9C328.896 634.067 330.13 632.667 331.863 631.7C333.596 630.733 335.73 630.25 338.263 630.25V634.9C338.063 634.867 337.863 634.85 337.663 634.85C337.496 634.85 337.33 634.85 337.163 634.85C334.596 634.85 332.563 635.617 331.063 637.15C329.563 638.683 328.813 640.9 328.813 643.8V657H324.013ZM355.735 657.3C352.901 657.3 350.401 656.717 348.235 655.55C346.101 654.383 344.435 652.783 343.235 650.75C342.068 648.717 341.485 646.383 341.485 643.75C341.485 641.117 342.051 638.783 343.185 636.75C344.351 634.717 345.935 633.133 347.935 632C349.968 630.833 352.251 630.25 354.785 630.25C357.351 630.25 359.618 630.817 361.585 631.95C363.551 633.083 365.085 634.683 366.185 636.75C367.318 638.783 367.885 641.167 367.885 643.9C367.885 644.1 367.868 644.333 367.835 644.6C367.835 644.867 367.818 645.117 367.785 645.35H345.235V641.9H365.285L363.335 643.1C363.368 641.4 363.018 639.883 362.285 638.55C361.551 637.217 360.535 636.183 359.235 635.45C357.968 634.683 356.485 634.3 354.785 634.3C353.118 634.3 351.635 634.683 350.335 635.45C349.035 636.183 348.018 637.233 347.285 638.6C346.551 639.933 346.185 641.467 346.185 643.2V644C346.185 645.767 346.585 647.35 347.385 648.75C348.218 650.117 349.368 651.183 350.835 651.95C352.301 652.717 353.985 653.1 355.885 653.1C357.451 653.1 358.868 652.833 360.135 652.3C361.435 651.767 362.568 650.967 363.535 649.9L366.185 653C364.985 654.4 363.485 655.467 361.685 656.2C359.918 656.933 357.935 657.3 355.735 657.3ZM385.5 657.3C382.933 657.3 380.633 656.733 378.6 655.6C376.6 654.467 375.017 652.883 373.85 650.85C372.683 648.817 372.1 646.45 372.1 643.75C372.1 641.05 372.683 638.7 373.85 636.7C375.017 634.667 376.6 633.083 378.6 631.95C380.633 630.817 382.933 630.25 385.5 630.25C387.733 630.25 389.75 630.75 391.55 631.75C393.35 632.75 394.783 634.25 395.85 636.25C396.95 638.25 397.5 640.75 397.5 643.75C397.5 646.75 396.967 649.25 395.9 651.25C394.867 653.25 393.45 654.767 391.65 655.8C389.85 656.8 387.8 657.3 385.5 657.3ZM385.9 653.1C387.567 653.1 389.067 652.717 390.4 651.95C391.767 651.183 392.833 650.1 393.6 648.7C394.4 647.267 394.8 645.617 394.8 643.75C394.8 641.85 394.4 640.217 393.6 638.85C392.833 637.45 391.767 636.367 390.4 635.6C389.067 634.833 387.567 634.45 385.9 634.45C384.2 634.45 382.683 634.833 381.35 635.6C380.017 636.367 378.95 637.45 378.15 638.85C377.35 640.217 376.95 641.85 376.95 643.75C376.95 645.617 377.35 647.267 378.15 648.7C378.95 650.1 380.017 651.183 381.35 651.95C382.683 652.717 384.2 653.1 385.9 653.1ZM394.95 657V649.85L395.25 643.7L394.75 637.55V619.9H399.55V657H394.95Z" fill="#AB5B5B"/>
<path d="M95 663.25H404.1V665.75H95V663.25Z" fill="#AB5B5B"/>
</svg>
