<svg width="615" height="822" viewBox="0 0 615 822" fill="none" xmlns="http://www.w3.org/2000/svg">
<path d="M114.75 179.4C110.15 179.4 106.533 178.083 103.9 175.45C101.267 172.817 99.95 168.967 99.95 163.9V144H104.95V163.7C104.95 167.6 105.8 170.45 107.5 172.25C109.233 174.05 111.667 174.95 114.8 174.95C117.967 174.95 120.4 174.05 122.1 172.25C123.833 170.45 124.7 167.6 124.7 163.7V144H129.55V163.9C129.55 168.967 128.233 172.817 125.6 175.45C123 178.083 119.383 179.4 114.75 179.4ZM153.251 152.25C155.417 152.25 157.317 152.667 158.951 153.5C160.617 154.333 161.917 155.6 162.851 157.3C163.784 159 164.251 161.15 164.251 163.75V179H159.451V164.3C159.451 161.733 158.817 159.8 157.551 158.5C156.317 157.2 154.567 156.55 152.301 156.55C150.601 156.55 149.117 156.883 147.851 157.55C146.584 158.217 145.601 159.2 144.901 160.5C144.234 161.8 143.901 163.417 143.901 165.35V179H139.101V152.5H143.701V159.65L142.951 157.75C143.817 156.017 145.151 154.667 146.951 153.7C148.751 152.733 150.851 152.25 153.251 152.25ZM200.612 179.3C198.412 179.3 196.395 178.8 194.562 177.8C192.762 176.767 191.312 175.25 190.212 173.25C189.145 171.25 188.612 168.75 188.612 165.75C188.612 162.75 189.128 160.25 190.162 158.25C191.228 156.25 192.662 154.75 194.462 153.75C196.295 152.75 198.345 152.25 200.612 152.25C203.212 152.25 205.512 152.817 207.512 153.95C209.512 155.083 211.095 156.667 212.262 158.7C213.428 160.7 214.012 163.05 214.012 165.75C214.012 168.45 213.428 170.817 212.262 172.85C211.095 174.883 209.512 176.467 207.512 177.6C205.512 178.733 203.212 179.3 200.612 179.3ZM186.562 188.7V152.5H191.162V159.65L190.862 165.8L191.362 171.95V188.7H186.562ZM200.212 175.1C201.912 175.1 203.428 174.717 204.762 173.95C206.128 173.183 207.195 172.1 207.962 170.7C208.762 169.267 209.162 167.617 209.162 165.75C209.162 163.85 208.762 162.217 207.962 160.85C207.195 159.45 206.128 158.367 204.762 157.6C203.428 156.833 201.912 156.45 200.212 156.45C198.545 156.45 197.028 156.833 195.662 157.6C194.328 158.367 193.262 159.45 192.462 160.85C191.695 162.217 191.312 163.85 191.312 165.75C191.312 167.617 191.695 169.267 192.462 170.7C193.262 172.1 194.328 173.183 195.662 173.95C197.028 174.717 198.545 175.1 200.212 175.1ZM232.444 179.3C229.61 179.3 227.11 178.717 224.944 177.55C222.81 176.383 221.144 174.783 219.944 172.75C218.777 170.717 218.194 168.383 218.194 165.75C218.194 163.117 218.76 160.783 219.894 158.75C221.06 156.717 222.644 155.133 224.644 154C226.677 152.833 228.96 152.25 231.494 152.25C234.06 152.25 236.327 152.817 238.294 153.95C240.26 155.083 241.794 156.683 242.894 158.75C244.027 160.783 244.594 163.167 244.594 165.9C244.594 166.1 244.577 166.333 244.544 166.6C244.544 166.867 244.527 167.117 244.494 167.35H221.944V163.9H241.994L240.044 165.1C240.077 163.4 239.727 161.883 238.994 160.55C238.26 159.217 237.244 158.183 235.944 157.45C234.677 156.683 233.194 156.3 231.494 156.3C229.827 156.3 228.344 156.683 227.044 157.45C225.744 158.183 224.727 159.233 223.994 160.6C223.26 161.933 222.894 163.467 222.894 165.2V166C222.894 167.767 223.294 169.35 224.094 170.75C224.927 172.117 226.077 173.183 227.544 173.95C229.01 174.717 230.694 175.1 232.594 175.1C234.16 175.1 235.577 174.833 236.844 174.3C238.144 173.767 239.277 172.967 240.244 171.9L242.894 175C241.694 176.4 240.194 177.467 238.394 178.2C236.627 178.933 234.644 179.3 232.444 179.3ZM262.409 179.3C260.142 179.3 258.142 178.883 256.409 178.05C254.709 177.217 253.376 175.95 252.409 174.25C251.476 172.517 251.009 170.35 251.009 167.75V152.5H255.809V167.2C255.809 169.8 256.426 171.75 257.659 173.05C258.926 174.35 260.692 175 262.959 175C264.626 175 266.076 174.667 267.309 174C268.542 173.3 269.492 172.3 270.159 171C270.826 169.667 271.159 168.067 271.159 166.2V152.5H275.959V179H271.409V171.85L272.159 173.75C271.292 175.517 269.992 176.883 268.259 177.85C266.526 178.817 264.576 179.3 262.409 179.3ZM309.475 179.3C306.908 179.3 304.608 178.733 302.575 177.6C300.575 176.467 298.991 174.883 297.825 172.85C296.658 170.817 296.075 168.45 296.075 165.75C296.075 163.05 296.658 160.7 297.825 158.7C298.991 156.667 300.575 155.083 302.575 153.95C304.608 152.817 306.908 152.25 309.475 152.25C311.708 152.25 313.725 152.75 315.525 153.75C317.325 154.75 318.758 156.25 319.825 158.25C320.925 160.25 321.475 162.75 321.475 165.75C321.475 168.75 320.941 171.25 319.875 173.25C318.841 175.25 317.425 176.767 315.625 177.8C313.825 178.8 311.775 179.3 309.475 179.3ZM309.875 175.1C311.541 175.1 313.041 174.717 314.375 173.95C315.741 173.183 316.808 172.1 317.575 170.7C318.375 169.267 318.775 167.617 318.775 165.75C318.775 163.85 318.375 162.217 317.575 160.85C316.808 159.45 315.741 158.367 314.375 157.6C313.041 156.833 311.541 156.45 309.875 156.45C308.175 156.45 306.658 156.833 305.325 157.6C303.991 158.367 302.925 159.45 302.125 160.85C301.325 162.217 300.925 163.85 300.925 165.75C300.925 167.617 301.325 169.267 302.125 170.7C302.925 172.1 303.991 173.183 305.325 173.95C306.658 174.717 308.175 175.1 309.875 175.1ZM318.925 179V171.85L319.225 165.7L318.725 159.55V141.9H323.525V179H318.925ZM344.407 179.3C341.573 179.3 339.073 178.717 336.907 177.55C334.773 176.383 333.107 174.783 331.907 172.75C330.74 170.717 330.157 168.383 330.157 165.75C330.157 163.117 330.723 160.783 331.857 158.75C333.023 156.717 334.607 155.133 336.607 154C338.64 152.833 340.923 152.25 343.457 152.25C346.023 152.25 348.29 152.817 350.257 153.95C352.223 155.083 353.757 156.683 354.857 158.75C355.99 160.783 356.557 163.167 356.557 165.9C356.557 166.1 356.54 166.333 356.507 166.6C356.507 166.867 356.49 167.117 356.457 167.35H333.907V163.9H353.957L352.007 165.1C352.04 163.4 351.69 161.883 350.957 160.55C350.223 159.217 349.207 158.183 347.907 157.45C346.64 156.683 345.157 156.3 343.457 156.3C341.79 156.3 340.307 156.683 339.007 157.45C337.707 158.183 336.69 159.233 335.957 160.6C335.223 161.933 334.857 163.467 334.857 165.2V166C334.857 167.767 335.257 169.35 336.057 170.75C336.89 172.117 338.04 173.183 339.507 173.95C340.973 174.717 342.657 175.1 344.557 175.1C346.123 175.1 347.54 174.833 348.807 174.3C350.107 173.767 351.24 172.967 352.207 171.9L354.857 175C353.657 176.4 352.157 177.467 350.357 178.2C348.59 178.933 346.607 179.3 344.407 179.3ZM390.7 179.3C388.5 179.3 386.483 178.8 384.65 177.8C382.85 176.767 381.4 175.25 380.3 173.25C379.233 171.25 378.7 168.75 378.7 165.75C378.7 162.75 379.216 160.25 380.25 158.25C381.316 156.25 382.75 154.75 384.55 153.75C386.383 152.75 388.433 152.25 390.7 152.25C393.3 152.25 395.6 152.817 397.6 153.95C399.6 155.083 401.183 156.667 402.35 158.7C403.516 160.7 404.1 163.05 404.1 165.75C404.1 168.45 403.516 170.817 402.35 172.85C401.183 174.883 399.6 176.467 397.6 177.6C395.6 178.733 393.3 179.3 390.7 179.3ZM376.65 188.7V152.5H381.25V159.65L380.95 165.8L381.45 171.95V188.7H376.65ZM390.3 175.1C392 175.1 393.516 174.717 394.85 173.95C396.216 173.183 397.283 172.1 398.05 170.7C398.85 169.267 399.25 167.617 399.25 165.75C399.25 163.85 398.85 162.217 398.05 160.85C397.283 159.45 396.216 158.367 394.85 157.6C393.516 156.833 392 156.45 390.3 156.45C388.633 156.45 387.116 156.833 385.75 157.6C384.416 158.367 383.35 159.45 382.55 160.85C381.783 162.217 381.4 163.85 381.4 165.75C381.4 167.617 381.783 169.267 382.55 170.7C383.35 172.1 384.416 173.183 385.75 173.95C387.116 174.717 388.633 175.1 390.3 175.1ZM410.732 179V141.9H415.532V179H410.732ZM435.846 179.3C433.58 179.3 431.58 178.883 429.846 178.05C428.146 177.217 426.813 175.95 425.846 174.25C424.913 172.517 424.446 170.35 424.446 167.75V152.5H429.246V167.2C429.246 169.8 429.863 171.75 431.096 173.05C432.363 174.35 434.13 175 436.396 175C438.063 175 439.513 174.667 440.746 174C441.98 173.3 442.93 172.3 443.596 171C444.263 169.667 444.596 168.067 444.596 166.2V152.5H449.396V179H444.846V171.85L445.596 173.75C444.73 175.517 443.43 176.883 441.696 177.85C439.963 178.817 438.013 179.3 435.846 179.3ZM458.534 179V152.5H463.334V179H458.534ZM460.934 147.4C460.001 147.4 459.218 147.1 458.584 146.5C457.984 145.9 457.684 145.167 457.684 144.3C457.684 143.4 457.984 142.65 458.584 142.05C459.218 141.45 460.001 141.15 460.934 141.15C461.868 141.15 462.634 141.45 463.234 142.05C463.868 142.617 464.184 143.333 464.184 144.2C464.184 145.1 463.884 145.867 463.284 146.5C462.684 147.1 461.901 147.4 460.934 147.4ZM484.299 179.3C481.466 179.3 478.966 178.717 476.799 177.55C474.666 176.383 472.999 174.783 471.799 172.75C470.633 170.717 470.049 168.383 470.049 165.75C470.049 163.117 470.616 160.783 471.749 158.75C472.916 156.717 474.499 155.133 476.499 154C478.533 152.833 480.816 152.25 483.349 152.25C485.916 152.25 488.183 152.817 490.149 153.95C492.116 155.083 493.649 156.683 494.749 158.75C495.883 160.783 496.449 163.167 496.449 165.9C496.449 166.1 496.433 166.333 496.399 166.6C496.399 166.867 496.383 167.117 496.349 167.35H473.799V163.9H493.849L491.899 165.1C491.933 163.4 491.583 161.883 490.849 160.55C490.116 159.217 489.099 158.183 487.799 157.45C486.533 156.683 485.049 156.3 483.349 156.3C481.683 156.3 480.199 156.683 478.899 157.45C477.599 158.183 476.583 159.233 475.849 160.6C475.116 161.933 474.749 163.467 474.749 165.2V166C474.749 167.767 475.149 169.35 475.949 170.75C476.783 172.117 477.933 173.183 479.399 173.95C480.866 174.717 482.549 175.1 484.449 175.1C486.016 175.1 487.433 174.833 488.699 174.3C489.999 173.767 491.133 172.967 492.099 171.9L494.749 175C493.549 176.4 492.049 177.467 490.249 178.2C488.483 178.933 486.499 179.3 484.299 179.3ZM113.7 222.25C115.867 222.25 117.767 222.667 119.4 223.5C121.067 224.333 122.367 225.6 123.3 227.3C124.233 229 124.7 231.15 124.7 233.75V249H119.9V234.3C119.9 231.733 119.267 229.8 118 228.5C116.767 227.2 115.017 226.55 112.75 226.55C111.05 226.55 109.567 226.883 108.3 227.55C107.033 228.217 106.05 229.2 105.35 230.5C104.683 231.8 104.35 233.417 104.35 235.35V249H99.55V222.5H104.15V229.65L103.4 227.75C104.267 226.017 105.6 224.667 107.4 223.7C109.2 222.733 111.3 222.25 113.7 222.25ZM145.383 249.3C142.55 249.3 140.05 248.717 137.883 247.55C135.75 246.383 134.083 244.783 132.883 242.75C131.717 240.717 131.133 238.383 131.133 235.75C131.133 233.117 131.7 230.783 132.833 228.75C134 226.717 135.583 225.133 137.583 224C139.617 222.833 141.9 222.25 144.433 222.25C147 222.25 149.267 222.817 151.233 223.95C153.2 225.083 154.733 226.683 155.833 228.75C156.967 230.783 157.533 233.167 157.533 235.9C157.533 236.1 157.517 236.333 157.483 236.6C157.483 236.867 157.467 237.117 157.433 237.35H134.883V233.9H154.933L152.983 235.1C153.017 233.4 152.667 231.883 151.933 230.55C151.2 229.217 150.183 228.183 148.883 227.45C147.617 226.683 146.133 226.3 144.433 226.3C142.767 226.3 141.283 226.683 139.983 227.45C138.683 228.183 137.667 229.233 136.933 230.6C136.2 231.933 135.833 233.467 135.833 235.2V236C135.833 237.767 136.233 239.35 137.033 240.75C137.867 242.117 139.017 243.183 140.483 243.95C141.95 244.717 143.633 245.1 145.533 245.1C147.1 245.1 148.517 244.833 149.783 244.3C151.083 243.767 152.217 242.967 153.183 241.9L155.833 245C154.633 246.4 153.133 247.467 151.333 248.2C149.567 248.933 147.583 249.3 145.383 249.3ZM184.576 249L172.976 222.5H177.976L188.276 246.5H185.876L196.376 222.5H201.076L189.476 249H184.576ZM216.173 249.3C213.507 249.3 211.14 248.717 209.073 247.55C207.007 246.383 205.373 244.783 204.173 242.75C202.973 240.683 202.373 238.35 202.373 235.75C202.373 233.117 202.973 230.783 204.173 228.75C205.373 226.717 207.007 225.133 209.073 224C211.14 222.833 213.507 222.25 216.173 222.25C218.807 222.25 221.157 222.833 223.223 224C225.323 225.133 226.957 226.717 228.123 228.75C229.323 230.75 229.923 233.083 229.923 235.75C229.923 238.383 229.323 240.717 228.123 242.75C226.957 244.783 225.323 246.383 223.223 247.55C221.157 248.717 218.807 249.3 216.173 249.3ZM216.173 245.1C217.873 245.1 219.39 244.717 220.723 243.95C222.09 243.183 223.157 242.1 223.923 240.7C224.69 239.267 225.073 237.617 225.073 235.75C225.073 233.85 224.69 232.217 223.923 230.85C223.157 229.45 222.09 228.367 220.723 227.6C219.39 226.833 217.873 226.45 216.173 226.45C214.473 226.45 212.957 226.833 211.623 227.6C210.29 228.367 209.223 229.45 208.423 230.85C207.623 232.217 207.223 233.85 207.223 235.75C207.223 237.617 207.623 239.267 208.423 240.7C209.223 242.1 210.29 243.183 211.623 243.95C212.957 244.717 214.473 245.1 216.173 245.1ZM247.712 249.3C245.445 249.3 243.445 248.883 241.712 248.05C240.012 247.217 238.678 245.95 237.712 244.25C236.778 242.517 236.312 240.35 236.312 237.75V222.5H241.112V237.2C241.112 239.8 241.728 241.75 242.962 243.05C244.228 244.35 245.995 245 248.262 245C249.928 245 251.378 244.667 252.612 244C253.845 243.3 254.795 242.3 255.462 241C256.128 239.667 256.462 238.067 256.462 236.2V222.5H261.262V249H256.712V241.85L257.462 243.75C256.595 245.517 255.295 246.883 253.562 247.85C251.828 248.817 249.878 249.3 247.712 249.3ZM278 249.3C275.8 249.3 273.7 249 271.7 248.4C269.733 247.8 268.183 247.067 267.05 246.2L269.05 242.4C270.183 243.167 271.583 243.817 273.25 244.35C274.916 244.883 276.616 245.15 278.35 245.15C280.583 245.15 282.183 244.833 283.15 244.2C284.15 243.567 284.65 242.683 284.65 241.55C284.65 240.717 284.35 240.067 283.75 239.6C283.15 239.133 282.35 238.783 281.35 238.55C280.383 238.317 279.3 238.117 278.1 237.95C276.9 237.75 275.7 237.517 274.5 237.25C273.3 236.95 272.2 236.55 271.2 236.05C270.2 235.517 269.4 234.8 268.8 233.9C268.2 232.967 267.9 231.733 267.9 230.2C267.9 228.6 268.35 227.2 269.25 226C270.15 224.8 271.416 223.883 273.05 223.25C274.716 222.583 276.683 222.25 278.95 222.25C280.683 222.25 282.433 222.467 284.2 222.9C286 223.3 287.466 223.883 288.6 224.65L286.55 228.45C285.35 227.65 284.1 227.1 282.8 226.8C281.5 226.5 280.2 226.35 278.9 226.35C276.8 226.35 275.233 226.7 274.2 227.4C273.166 228.067 272.65 228.933 272.65 230C272.65 230.9 272.95 231.6 273.55 232.1C274.183 232.567 274.983 232.933 275.95 233.2C276.95 233.467 278.05 233.7 279.25 233.9C280.45 234.067 281.65 234.3 282.85 234.6C284.05 234.867 285.133 235.25 286.1 235.75C287.1 236.25 287.9 236.95 288.5 237.85C289.133 238.75 289.45 239.95 289.45 241.45C289.45 243.05 288.983 244.433 288.05 245.6C287.116 246.767 285.8 247.683 284.1 248.35C282.4 248.983 280.366 249.3 278 249.3ZM111.35 319.3C108.517 319.3 106.017 318.717 103.85 317.55C101.717 316.383 100.05 314.783 98.85 312.75C97.6833 310.717 97.1 308.383 97.1 305.75C97.1 303.117 97.6667 300.783 98.8 298.75C99.9667 296.717 101.55 295.133 103.55 294C105.583 292.833 107.867 292.25 110.4 292.25C112.967 292.25 115.233 292.817 117.2 293.95C119.167 295.083 120.7 296.683 121.8 298.75C122.933 300.783 123.5 303.167 123.5 305.9C123.5 306.1 123.483 306.333 123.45 306.6C123.45 306.867 123.433 307.117 123.4 307.35H100.85V303.9H120.9L118.95 305.1C118.983 303.4 118.633 301.883 117.9 300.55C117.167 299.217 116.15 298.183 114.85 297.45C113.583 296.683 112.1 296.3 110.4 296.3C108.733 296.3 107.25 296.683 105.95 297.45C104.65 298.183 103.633 299.233 102.9 300.6C102.167 301.933 101.8 303.467 101.8 305.2V306C101.8 307.767 102.2 309.35 103 310.75C103.833 312.117 104.983 313.183 106.45 313.95C107.917 314.717 109.6 315.1 111.5 315.1C113.067 315.1 114.483 314.833 115.75 314.3C117.05 313.767 118.183 312.967 119.15 311.9L121.8 315C120.6 316.4 119.1 317.467 117.3 318.2C115.533 318.933 113.55 319.3 111.35 319.3ZM163.315 292.25C165.449 292.25 167.332 292.667 168.965 293.5C170.599 294.333 171.865 295.6 172.765 297.3C173.699 299 174.165 301.15 174.165 303.75V319H169.365V304.3C169.365 301.733 168.765 299.8 167.565 298.5C166.365 297.2 164.682 296.55 162.515 296.55C160.915 296.55 159.515 296.883 158.315 297.55C157.115 298.217 156.182 299.2 155.515 300.5C154.882 301.8 154.565 303.417 154.565 305.35V319H149.765V304.3C149.765 301.733 149.165 299.8 147.965 298.5C146.799 297.2 145.115 296.55 142.915 296.55C141.349 296.55 139.965 296.883 138.765 297.55C137.565 298.217 136.632 299.2 135.965 300.5C135.299 301.8 134.965 303.417 134.965 305.35V319H130.165V292.5H134.765V299.55L134.015 297.75C134.849 296.017 136.132 294.667 137.865 293.7C139.599 292.733 141.615 292.25 143.915 292.25C146.449 292.25 148.632 292.883 150.465 294.15C152.299 295.383 153.499 297.267 154.065 299.8L152.115 299C152.915 296.967 154.315 295.333 156.315 294.1C158.315 292.867 160.649 292.25 163.315 292.25ZM197.047 319.3C194.847 319.3 192.831 318.8 190.997 317.8C189.197 316.767 187.747 315.25 186.647 313.25C185.581 311.25 185.047 308.75 185.047 305.75C185.047 302.75 185.564 300.25 186.597 298.25C187.664 296.25 189.097 294.75 190.897 293.75C192.731 292.75 194.781 292.25 197.047 292.25C199.647 292.25 201.947 292.817 203.947 293.95C205.947 295.083 207.531 296.667 208.697 298.7C209.864 300.7 210.447 303.05 210.447 305.75C210.447 308.45 209.864 310.817 208.697 312.85C207.531 314.883 205.947 316.467 203.947 317.6C201.947 318.733 199.647 319.3 197.047 319.3ZM182.997 328.7V292.5H187.597V299.65L187.297 305.8L187.797 311.95V328.7H182.997ZM196.647 315.1C198.347 315.1 199.864 314.717 201.197 313.95C202.564 313.183 203.631 312.1 204.397 310.7C205.197 309.267 205.597 307.617 205.597 305.75C205.597 303.85 205.197 302.217 204.397 300.85C203.631 299.45 202.564 298.367 201.197 297.6C199.864 296.833 198.347 296.45 196.647 296.45C194.981 296.45 193.464 296.833 192.097 297.6C190.764 298.367 189.697 299.45 188.897 300.85C188.131 302.217 187.747 303.85 187.747 305.75C187.747 307.617 188.131 309.267 188.897 310.7C189.697 312.1 190.764 313.183 192.097 313.95C193.464 314.717 194.981 315.1 196.647 315.1ZM228.879 319.3C226.046 319.3 223.546 318.717 221.379 317.55C219.246 316.383 217.579 314.783 216.379 312.75C215.213 310.717 214.629 308.383 214.629 305.75C214.629 303.117 215.196 300.783 216.329 298.75C217.496 296.717 219.079 295.133 221.079 294C223.113 292.833 225.396 292.25 227.929 292.25C230.496 292.25 232.763 292.817 234.729 293.95C236.696 295.083 238.229 296.683 239.329 298.75C240.463 300.783 241.029 303.167 241.029 305.9C241.029 306.1 241.013 306.333 240.979 306.6C240.979 306.867 240.963 307.117 240.929 307.35H218.379V303.9H238.429L236.479 305.1C236.513 303.4 236.163 301.883 235.429 300.55C234.696 299.217 233.679 298.183 232.379 297.45C231.113 296.683 229.629 296.3 227.929 296.3C226.263 296.3 224.779 296.683 223.479 297.45C222.179 298.183 221.163 299.233 220.429 300.6C219.696 301.933 219.329 303.467 219.329 305.2V306C219.329 307.767 219.729 309.35 220.529 310.75C221.363 312.117 222.513 313.183 223.979 313.95C225.446 314.717 227.129 315.1 229.029 315.1C230.596 315.1 232.013 314.833 233.279 314.3C234.579 313.767 235.713 312.967 236.679 311.9L239.329 315C238.129 316.4 236.629 317.467 234.829 318.2C233.063 318.933 231.079 319.3 228.879 319.3ZM218.929 288.65L225.579 282.15H230.179L236.829 288.65H232.479L225.879 283.15H229.879L223.279 288.65H218.929ZM259.245 319.3C256.545 319.3 254.128 318.717 251.995 317.55C249.895 316.383 248.245 314.783 247.045 312.75C245.845 310.717 245.245 308.383 245.245 305.75C245.245 303.117 245.845 300.783 247.045 298.75C248.245 296.717 249.895 295.133 251.995 294C254.128 292.833 256.545 292.25 259.245 292.25C261.645 292.25 263.778 292.733 265.645 293.7C267.545 294.633 269.011 296.033 270.045 297.9L266.395 300.25C265.528 298.95 264.461 298 263.195 297.4C261.961 296.767 260.628 296.45 259.195 296.45C257.461 296.45 255.911 296.833 254.545 297.6C253.178 298.367 252.095 299.45 251.295 300.85C250.495 302.217 250.095 303.85 250.095 305.75C250.095 307.65 250.495 309.3 251.295 310.7C252.095 312.1 253.178 313.183 254.545 313.95C255.911 314.717 257.461 315.1 259.195 315.1C260.628 315.1 261.961 314.8 263.195 314.2C264.461 313.567 265.528 312.6 266.395 311.3L270.045 313.6C269.011 315.433 267.545 316.85 265.645 317.85C263.778 318.817 261.645 319.3 259.245 319.3ZM290.067 292.25C292.234 292.25 294.134 292.667 295.767 293.5C297.434 294.333 298.734 295.6 299.667 297.3C300.601 299 301.067 301.15 301.067 303.75V319H296.267V304.3C296.267 301.733 295.634 299.8 294.367 298.5C293.134 297.2 291.384 296.55 289.117 296.55C287.417 296.55 285.934 296.883 284.667 297.55C283.401 298.217 282.417 299.2 281.717 300.5C281.051 301.8 280.717 303.417 280.717 305.35V319H275.917V281.9H280.717V299.65L279.767 297.75C280.634 296.017 281.967 294.667 283.767 293.7C285.567 292.733 287.667 292.25 290.067 292.25ZM321.75 319.3C318.917 319.3 316.417 318.717 314.25 317.55C312.117 316.383 310.45 314.783 309.25 312.75C308.084 310.717 307.5 308.383 307.5 305.75C307.5 303.117 308.067 300.783 309.2 298.75C310.367 296.717 311.95 295.133 313.95 294C315.984 292.833 318.267 292.25 320.8 292.25C323.367 292.25 325.634 292.817 327.6 293.95C329.567 295.083 331.1 296.683 332.2 298.75C333.334 300.783 333.9 303.167 333.9 305.9C333.9 306.1 333.884 306.333 333.85 306.6C333.85 306.867 333.834 307.117 333.8 307.35H311.25V303.9H331.3L329.35 305.1C329.384 303.4 329.034 301.883 328.3 300.55C327.567 299.217 326.55 298.183 325.25 297.45C323.984 296.683 322.5 296.3 320.8 296.3C319.134 296.3 317.65 296.683 316.35 297.45C315.05 298.183 314.034 299.233 313.3 300.6C312.567 301.933 312.2 303.467 312.2 305.2V306C312.2 307.767 312.6 309.35 313.4 310.75C314.234 312.117 315.384 313.183 316.85 313.95C318.317 314.717 320 315.1 321.9 315.1C323.467 315.1 324.884 314.833 326.15 314.3C327.45 313.767 328.584 312.967 329.55 311.9L332.2 315C331 316.4 329.5 317.467 327.7 318.2C325.934 318.933 323.95 319.3 321.75 319.3ZM340.566 319V292.5H345.166V299.7L344.716 297.9C345.449 296.067 346.682 294.667 348.416 293.7C350.149 292.733 352.282 292.25 354.816 292.25V296.9C354.616 296.867 354.416 296.85 354.216 296.85C354.049 296.85 353.882 296.85 353.716 296.85C351.149 296.85 349.116 297.617 347.616 299.15C346.116 300.683 345.366 302.9 345.366 305.8V319H340.566ZM375.229 319V313.4L374.979 312.35V302.8C374.979 300.767 374.379 299.2 373.179 298.1C372.012 296.967 370.245 296.4 367.879 296.4C366.312 296.4 364.779 296.667 363.279 297.2C361.779 297.7 360.512 298.383 359.479 299.25L357.479 295.65C358.845 294.55 360.479 293.717 362.379 293.15C364.312 292.55 366.329 292.25 368.429 292.25C372.062 292.25 374.862 293.133 376.829 294.9C378.795 296.667 379.779 299.367 379.779 303V319H375.229ZM366.529 319.3C364.562 319.3 362.829 318.967 361.329 318.3C359.862 317.633 358.729 316.717 357.929 315.55C357.129 314.35 356.729 313 356.729 311.5C356.729 310.067 357.062 308.767 357.729 307.6C358.429 306.433 359.545 305.5 361.079 304.8C362.645 304.1 364.745 303.75 367.379 303.75H375.779V307.2H367.579C365.179 307.2 363.562 307.6 362.729 308.4C361.895 309.2 361.479 310.167 361.479 311.3C361.479 312.6 361.995 313.65 363.029 314.45C364.062 315.217 365.495 315.6 367.329 315.6C369.129 315.6 370.695 315.2 372.029 314.4C373.395 313.6 374.379 312.433 374.979 310.9L375.929 314.2C375.295 315.767 374.179 317.017 372.579 317.95C370.979 318.85 368.962 319.3 366.529 319.3ZM416.139 319.3C413.939 319.3 411.922 318.8 410.089 317.8C408.289 316.767 406.839 315.25 405.739 313.25C404.672 311.25 404.139 308.75 404.139 305.75C404.139 302.75 404.656 300.25 405.689 298.25C406.756 296.25 408.189 294.75 409.989 293.75C411.822 292.75 413.872 292.25 416.139 292.25C418.739 292.25 421.039 292.817 423.039 293.95C425.039 295.083 426.622 296.667 427.789 298.7C428.956 300.7 429.539 303.05 429.539 305.75C429.539 308.45 428.956 310.817 427.789 312.85C426.622 314.883 425.039 316.467 423.039 317.6C421.039 318.733 418.739 319.3 416.139 319.3ZM402.089 328.7V292.5H406.689V299.65L406.389 305.8L406.889 311.95V328.7H402.089ZM415.739 315.1C417.439 315.1 418.956 314.717 420.289 313.95C421.656 313.183 422.722 312.1 423.489 310.7C424.289 309.267 424.689 307.617 424.689 305.75C424.689 303.85 424.289 302.217 423.489 300.85C422.722 299.45 421.656 298.367 420.289 297.6C418.956 296.833 417.439 296.45 415.739 296.45C414.072 296.45 412.556 296.833 411.189 297.6C409.856 298.367 408.789 299.45 407.989 300.85C407.222 302.217 406.839 303.85 406.839 305.75C406.839 307.617 407.222 309.267 407.989 310.7C408.789 312.1 409.856 313.183 411.189 313.95C412.556 314.717 414.072 315.1 415.739 315.1ZM452.377 319V313.4L452.127 312.35V302.8C452.127 300.767 451.527 299.2 450.327 298.1C449.16 296.967 447.394 296.4 445.027 296.4C443.46 296.4 441.927 296.667 440.427 297.2C438.927 297.7 437.66 298.383 436.627 299.25L434.627 295.65C435.994 294.55 437.627 293.717 439.527 293.15C441.46 292.55 443.477 292.25 445.577 292.25C449.21 292.25 452.01 293.133 453.977 294.9C455.944 296.667 456.927 299.367 456.927 303V319H452.377ZM443.677 319.3C441.71 319.3 439.977 318.967 438.477 318.3C437.01 317.633 435.877 316.717 435.077 315.55C434.277 314.35 433.877 313 433.877 311.5C433.877 310.067 434.21 308.767 434.877 307.6C435.577 306.433 436.694 305.5 438.227 304.8C439.794 304.1 441.894 303.75 444.527 303.75H452.927V307.2H444.727C442.327 307.2 440.71 307.6 439.877 308.4C439.044 309.2 438.627 310.167 438.627 311.3C438.627 312.6 439.144 313.65 440.177 314.45C441.21 315.217 442.644 315.6 444.477 315.6C446.277 315.6 447.844 315.2 449.177 314.4C450.544 313.6 451.527 312.433 452.127 310.9L453.077 314.2C452.444 315.767 451.327 317.017 449.727 317.95C448.127 318.85 446.11 319.3 443.677 319.3ZM473.41 319.3C471.21 319.3 469.11 319 467.11 318.4C465.143 317.8 463.593 317.067 462.46 316.2L464.46 312.4C465.593 313.167 466.993 313.817 468.66 314.35C470.326 314.883 472.026 315.15 473.76 315.15C475.993 315.15 477.593 314.833 478.56 314.2C479.56 313.567 480.06 312.683 480.06 311.55C480.06 310.717 479.76 310.067 479.16 309.6C478.56 309.133 477.76 308.783 476.76 308.55C475.793 308.317 474.71 308.117 473.51 307.95C472.31 307.75 471.11 307.517 469.91 307.25C468.71 306.95 467.61 306.55 466.61 306.05C465.61 305.517 464.81 304.8 464.21 303.9C463.61 302.967 463.31 301.733 463.31 300.2C463.31 298.6 463.76 297.2 464.66 296C465.56 294.8 466.826 293.883 468.46 293.25C470.126 292.583 472.093 292.25 474.36 292.25C476.093 292.25 477.843 292.467 479.61 292.9C481.41 293.3 482.876 293.883 484.01 294.65L481.96 298.45C480.76 297.65 479.51 297.1 478.21 296.8C476.91 296.5 475.61 296.35 474.31 296.35C472.21 296.35 470.643 296.7 469.61 297.4C468.576 298.067 468.06 298.933 468.06 300C468.06 300.9 468.36 301.6 468.96 302.1C469.593 302.567 470.393 302.933 471.36 303.2C472.36 303.467 473.46 303.7 474.66 303.9C475.86 304.067 477.06 304.3 478.26 304.6C479.46 304.867 480.543 305.25 481.51 305.75C482.51 306.25 483.31 306.95 483.91 307.85C484.543 308.75 484.86 309.95 484.86 311.45C484.86 313.05 484.393 314.433 483.46 315.6C482.526 316.767 481.21 317.683 479.51 318.35C477.81 318.983 475.776 319.3 473.41 319.3ZM110.5 389.3C107.933 389.3 105.633 388.733 103.6 387.6C101.6 386.467 100.017 384.883 98.85 382.85C97.6833 380.817 97.1 378.45 97.1 375.75C97.1 373.05 97.6833 370.7 98.85 368.7C100.017 366.667 101.6 365.083 103.6 363.95C105.633 362.817 107.933 362.25 110.5 362.25C112.733 362.25 114.75 362.75 116.55 363.75C118.35 364.75 119.783 366.25 120.85 368.25C121.95 370.25 122.5 372.75 122.5 375.75C122.5 378.75 121.967 381.25 120.9 383.25C119.867 385.25 118.45 386.767 116.65 387.8C114.85 388.8 112.8 389.3 110.5 389.3ZM110.9 385.1C112.567 385.1 114.067 384.717 115.4 383.95C116.767 383.183 117.833 382.1 118.6 380.7C119.4 379.267 119.8 377.617 119.8 375.75C119.8 373.85 119.4 372.217 118.6 370.85C117.833 369.45 116.767 368.367 115.4 367.6C114.067 366.833 112.567 366.45 110.9 366.45C109.2 366.45 107.683 366.833 106.35 367.6C105.017 368.367 103.95 369.45 103.15 370.85C102.35 372.217 101.95 373.85 101.95 375.75C101.95 377.617 102.35 379.267 103.15 380.7C103.95 382.1 105.017 383.183 106.35 383.95C107.683 384.717 109.2 385.1 110.9 385.1ZM119.95 389V381.85L120.25 375.7L119.75 369.55V351.9H124.55V389H119.95ZM145.432 389.3C142.599 389.3 140.099 388.717 137.932 387.55C135.799 386.383 134.132 384.783 132.932 382.75C131.765 380.717 131.182 378.383 131.182 375.75C131.182 373.117 131.749 370.783 132.882 368.75C134.049 366.717 135.632 365.133 137.632 364C139.665 362.833 141.949 362.25 144.482 362.25C147.049 362.25 149.315 362.817 151.282 363.95C153.249 365.083 154.782 366.683 155.882 368.75C157.015 370.783 157.582 373.167 157.582 375.9C157.582 376.1 157.565 376.333 157.532 376.6C157.532 376.867 157.515 377.117 157.482 377.35H134.932V373.9H154.982L153.032 375.1C153.065 373.4 152.715 371.883 151.982 370.55C151.249 369.217 150.232 368.183 148.932 367.45C147.665 366.683 146.182 366.3 144.482 366.3C142.815 366.3 141.332 366.683 140.032 367.45C138.732 368.183 137.715 369.233 136.982 370.6C136.249 371.933 135.882 373.467 135.882 375.2V376C135.882 377.767 136.282 379.35 137.082 380.75C137.915 382.117 139.065 383.183 140.532 383.95C141.999 384.717 143.682 385.1 145.582 385.1C147.149 385.1 148.565 384.833 149.832 384.3C151.132 383.767 152.265 382.967 153.232 381.9L155.882 385C154.682 386.4 153.182 387.467 151.382 388.2C149.615 388.933 147.632 389.3 145.432 389.3ZM184.625 389L173.025 362.5H178.025L188.325 386.5H185.925L196.425 362.5H201.125L189.525 389H184.625ZM216.222 389.3C213.556 389.3 211.189 388.717 209.122 387.55C207.056 386.383 205.422 384.783 204.222 382.75C203.022 380.683 202.422 378.35 202.422 375.75C202.422 373.117 203.022 370.783 204.222 368.75C205.422 366.717 207.056 365.133 209.122 364C211.189 362.833 213.556 362.25 216.222 362.25C218.856 362.25 221.206 362.833 223.272 364C225.372 365.133 227.006 366.717 228.172 368.75C229.372 370.75 229.972 373.083 229.972 375.75C229.972 378.383 229.372 380.717 228.172 382.75C227.006 384.783 225.372 386.383 223.272 387.55C221.206 388.717 218.856 389.3 216.222 389.3ZM216.222 385.1C217.922 385.1 219.439 384.717 220.772 383.95C222.139 383.183 223.206 382.1 223.972 380.7C224.739 379.267 225.122 377.617 225.122 375.75C225.122 373.85 224.739 372.217 223.972 370.85C223.206 369.45 222.139 368.367 220.772 367.6C219.439 366.833 217.922 366.45 216.222 366.45C214.522 366.45 213.006 366.833 211.672 367.6C210.339 368.367 209.272 369.45 208.472 370.85C207.672 372.217 207.272 373.85 207.272 375.75C207.272 377.617 207.672 379.267 208.472 380.7C209.272 382.1 210.339 383.183 211.672 383.95C213.006 384.717 214.522 385.1 216.222 385.1ZM247.761 389.3C245.494 389.3 243.494 388.883 241.761 388.05C240.061 387.217 238.727 385.95 237.761 384.25C236.827 382.517 236.361 380.35 236.361 377.75V362.5H241.161V377.2C241.161 379.8 241.777 381.75 243.011 383.05C244.277 384.35 246.044 385 248.311 385C249.977 385 251.427 384.667 252.661 384C253.894 383.3 254.844 382.3 255.511 381C256.177 379.667 256.511 378.067 256.511 376.2V362.5H261.311V389H256.761V381.85L257.511 383.75C256.644 385.517 255.344 386.883 253.611 387.85C251.877 388.817 249.927 389.3 247.761 389.3ZM278.048 389.3C275.848 389.3 273.748 389 271.748 388.4C269.782 387.8 268.232 387.067 267.098 386.2L269.098 382.4C270.232 383.167 271.632 383.817 273.298 384.35C274.965 384.883 276.665 385.15 278.398 385.15C280.632 385.15 282.232 384.833 283.198 384.2C284.198 383.567 284.698 382.683 284.698 381.55C284.698 380.717 284.398 380.067 283.798 379.6C283.198 379.133 282.398 378.783 281.398 378.55C280.432 378.317 279.348 378.117 278.148 377.95C276.948 377.75 275.748 377.517 274.548 377.25C273.348 376.95 272.248 376.55 271.248 376.05C270.248 375.517 269.448 374.8 268.848 373.9C268.248 372.967 267.948 371.733 267.948 370.2C267.948 368.6 268.398 367.2 269.298 366C270.198 364.8 271.465 363.883 273.098 363.25C274.765 362.583 276.732 362.25 278.998 362.25C280.732 362.25 282.482 362.467 284.248 362.9C286.048 363.3 287.515 363.883 288.648 364.65L286.598 368.45C285.398 367.65 284.148 367.1 282.848 366.8C281.548 366.5 280.248 366.35 278.948 366.35C276.848 366.35 275.282 366.7 274.248 367.4C273.215 368.067 272.698 368.933 272.698 370C272.698 370.9 272.998 371.6 273.598 372.1C274.232 372.567 275.032 372.933 275.998 373.2C276.998 373.467 278.098 373.7 279.298 373.9C280.498 374.067 281.698 374.3 282.898 374.6C284.098 374.867 285.182 375.25 286.148 375.75C287.148 376.25 287.948 376.95 288.548 377.85C289.182 378.75 289.498 379.95 289.498 381.45C289.498 383.05 289.032 384.433 288.098 385.6C287.165 386.767 285.848 387.683 284.148 388.35C282.448 388.983 280.415 389.3 278.048 389.3ZM323.075 362.25C325.242 362.25 327.142 362.667 328.775 363.5C330.442 364.333 331.742 365.6 332.675 367.3C333.608 369 334.075 371.15 334.075 373.75V389H329.275V374.3C329.275 371.733 328.642 369.8 327.375 368.5C326.142 367.2 324.392 366.55 322.125 366.55C320.425 366.55 318.942 366.883 317.675 367.55C316.408 368.217 315.425 369.2 314.725 370.5C314.058 371.8 313.725 373.417 313.725 375.35V389H308.925V351.9H313.725V369.65L312.775 367.75C313.642 366.017 314.975 364.667 316.775 363.7C318.575 362.733 320.675 362.25 323.075 362.25ZM359.408 389V383.4L359.158 382.35V372.8C359.158 370.767 358.558 369.2 357.358 368.1C356.192 366.967 354.425 366.4 352.058 366.4C350.492 366.4 348.958 366.667 347.458 367.2C345.958 367.7 344.692 368.383 343.658 369.25L341.658 365.65C343.025 364.55 344.658 363.717 346.558 363.15C348.492 362.55 350.508 362.25 352.608 362.25C356.242 362.25 359.042 363.133 361.008 364.9C362.975 366.667 363.958 369.367 363.958 373V389H359.408ZM350.708 389.3C348.742 389.3 347.008 388.967 345.508 388.3C344.042 387.633 342.908 386.717 342.108 385.55C341.308 384.35 340.908 383 340.908 381.5C340.908 380.067 341.242 378.767 341.908 377.6C342.608 376.433 343.725 375.5 345.258 374.8C346.825 374.1 348.925 373.75 351.558 373.75H359.958V377.2H351.758C349.358 377.2 347.742 377.6 346.908 378.4C346.075 379.2 345.658 380.167 345.658 381.3C345.658 382.6 346.175 383.65 347.208 384.45C348.242 385.217 349.675 385.6 351.508 385.6C353.308 385.6 354.875 385.2 356.208 384.4C357.575 383.6 358.558 382.433 359.158 380.9L360.108 384.2C359.475 385.767 358.358 387.017 356.758 387.95C355.158 388.85 353.142 389.3 350.708 389.3ZM386.891 389.3C384.624 389.3 382.574 388.8 380.741 387.8C378.941 386.767 377.508 385.25 376.441 383.25C375.408 381.25 374.891 378.75 374.891 375.75C374.891 372.75 375.424 370.25 376.491 368.25C377.591 366.25 379.041 364.75 380.841 363.75C382.674 362.75 384.691 362.25 386.891 362.25C389.491 362.25 391.791 362.817 393.791 363.95C395.791 365.083 397.374 366.667 398.541 368.7C399.708 370.7 400.291 373.05 400.291 375.75C400.291 378.45 399.708 380.817 398.541 382.85C397.374 384.883 395.791 386.467 393.791 387.6C391.791 388.733 389.491 389.3 386.891 389.3ZM372.841 389V351.9H377.641V369.55L377.141 375.7L377.441 381.85V389H372.841ZM386.491 385.1C388.191 385.1 389.708 384.717 391.041 383.95C392.408 383.183 393.474 382.1 394.241 380.7C395.041 379.267 395.441 377.617 395.441 375.75C395.441 373.85 395.041 372.217 394.241 370.85C393.474 369.45 392.408 368.367 391.041 367.6C389.708 366.833 388.191 366.45 386.491 366.45C384.824 366.45 383.308 366.833 381.941 367.6C380.608 368.367 379.541 369.45 378.741 370.85C377.974 372.217 377.591 373.85 377.591 375.75C377.591 377.617 377.974 379.267 378.741 380.7C379.541 382.1 380.608 383.183 381.941 383.95C383.308 384.717 384.824 385.1 386.491 385.1ZM406.923 389V362.5H411.723V389H406.923ZM409.323 357.4C408.39 357.4 407.606 357.1 406.973 356.5C406.373 355.9 406.073 355.167 406.073 354.3C406.073 353.4 406.373 352.65 406.973 352.05C407.606 351.45 408.39 351.15 409.323 351.15C410.256 351.15 411.023 351.45 411.623 352.05C412.256 352.617 412.573 353.333 412.573 354.2C412.573 355.1 412.273 355.867 411.673 356.5C411.073 357.1 410.29 357.4 409.323 357.4ZM420.888 389V351.9H425.688V389H420.888ZM434.853 389V351.9H439.653V389H434.853ZM460.618 389.3C457.784 389.3 455.284 388.717 453.118 387.55C450.984 386.383 449.318 384.783 448.118 382.75C446.951 380.717 446.368 378.383 446.368 375.75C446.368 373.117 446.934 370.783 448.068 368.75C449.234 366.717 450.818 365.133 452.818 364C454.851 362.833 457.134 362.25 459.668 362.25C462.234 362.25 464.501 362.817 466.468 363.95C468.434 365.083 469.968 366.683 471.068 368.75C472.201 370.783 472.768 373.167 472.768 375.9C472.768 376.1 472.751 376.333 472.718 376.6C472.718 376.867 472.701 377.117 472.668 377.35H450.118V373.9H470.168L468.218 375.1C468.251 373.4 467.901 371.883 467.168 370.55C466.434 369.217 465.418 368.183 464.118 367.45C462.851 366.683 461.368 366.3 459.668 366.3C458.001 366.3 456.518 366.683 455.218 367.45C453.918 368.183 452.901 369.233 452.168 370.6C451.434 371.933 451.068 373.467 451.068 375.2V376C451.068 377.767 451.468 379.35 452.268 380.75C453.101 382.117 454.251 383.183 455.718 383.95C457.184 384.717 458.868 385.1 460.768 385.1C462.334 385.1 463.751 384.833 465.018 384.3C466.318 383.767 467.451 382.967 468.418 381.9L471.068 385C469.868 386.4 468.368 387.467 466.568 388.2C464.801 388.933 462.818 389.3 460.618 389.3ZM479.433 389V362.5H484.033V369.7L483.583 367.9C484.316 366.067 485.549 364.667 487.283 363.7C489.016 362.733 491.149 362.25 493.683 362.25V366.9C493.483 366.867 493.283 366.85 493.083 366.85C492.916 366.85 492.749 366.85 492.583 366.85C490.016 366.85 487.983 367.617 486.483 369.15C484.983 370.683 484.233 372.9 484.233 375.8V389H479.433ZM500.602 389.3C499.669 389.3 498.869 388.983 498.202 388.35C497.536 387.683 497.202 386.85 497.202 385.85C497.202 384.85 497.536 384.033 498.202 383.4C498.869 382.767 499.669 382.45 500.602 382.45C501.502 382.45 502.269 382.767 502.902 383.4C503.569 384.033 503.902 384.85 503.902 385.85C503.902 386.85 503.569 387.683 502.902 388.35C502.269 388.983 501.502 389.3 500.602 389.3Z" fill="#AB5B5B"/>
<path d="M100.25 660V625H105.25V660H100.25ZM129.179 633.25C131.345 633.25 133.245 633.667 134.879 634.5C136.545 635.333 137.845 636.6 138.779 638.3C139.712 640 140.179 642.15 140.179 644.75V660H135.379V645.3C135.379 642.733 134.745 640.8 133.479 639.5C132.245 638.2 130.495 637.55 128.229 637.55C126.529 637.55 125.045 637.883 123.779 638.55C122.512 639.217 121.529 640.2 120.829 641.5C120.162 642.8 119.829 644.417 119.829 646.35V660H115.029V633.5H119.629V640.65L118.879 638.75C119.745 637.017 121.079 635.667 122.879 634.7C124.679 633.733 126.779 633.25 129.179 633.25ZM156.662 660.3C154.462 660.3 152.362 660 150.362 659.4C148.395 658.8 146.845 658.067 145.712 657.2L147.712 653.4C148.845 654.167 150.245 654.817 151.912 655.35C153.578 655.883 155.278 656.15 157.012 656.15C159.245 656.15 160.845 655.833 161.812 655.2C162.812 654.567 163.312 653.683 163.312 652.55C163.312 651.717 163.012 651.067 162.412 650.6C161.812 650.133 161.012 649.783 160.012 649.55C159.045 649.317 157.962 649.117 156.762 648.95C155.562 648.75 154.362 648.517 153.162 648.25C151.962 647.95 150.862 647.55 149.862 647.05C148.862 646.517 148.062 645.8 147.462 644.9C146.862 643.967 146.562 642.733 146.562 641.2C146.562 639.6 147.012 638.2 147.912 637C148.812 635.8 150.078 634.883 151.712 634.25C153.378 633.583 155.345 633.25 157.612 633.25C159.345 633.25 161.095 633.467 162.862 633.9C164.662 634.3 166.128 634.883 167.262 635.65L165.212 639.45C164.012 638.65 162.762 638.1 161.462 637.8C160.162 637.5 158.862 637.35 157.562 637.35C155.462 637.35 153.895 637.7 152.862 638.4C151.828 639.067 151.312 639.933 151.312 641C151.312 641.9 151.612 642.6 152.212 643.1C152.845 643.567 153.645 643.933 154.612 644.2C155.612 644.467 156.712 644.7 157.912 644.9C159.112 645.067 160.312 645.3 161.512 645.6C162.712 645.867 163.795 646.25 164.762 646.75C165.762 647.25 166.562 647.95 167.162 648.85C167.795 649.75 168.112 650.95 168.112 652.45C168.112 654.05 167.645 655.433 166.712 656.6C165.778 657.767 164.462 658.683 162.762 659.35C161.062 659.983 159.028 660.3 156.662 660.3ZM188.161 660.3C185.961 660.3 183.944 659.8 182.111 658.8C180.311 657.767 178.861 656.25 177.761 654.25C176.694 652.25 176.161 649.75 176.161 646.75C176.161 643.75 176.677 641.25 177.711 639.25C178.777 637.25 180.211 635.75 182.011 634.75C183.844 633.75 185.894 633.25 188.161 633.25C190.761 633.25 193.061 633.817 195.061 634.95C197.061 636.083 198.644 637.667 199.811 639.7C200.977 641.7 201.561 644.05 201.561 646.75C201.561 649.45 200.977 651.817 199.811 653.85C198.644 655.883 197.061 657.467 195.061 658.6C193.061 659.733 190.761 660.3 188.161 660.3ZM174.111 669.7V633.5H178.711V640.65L178.411 646.8L178.911 652.95V669.7H174.111ZM187.761 656.1C189.461 656.1 190.977 655.717 192.311 654.95C193.677 654.183 194.744 653.1 195.511 651.7C196.311 650.267 196.711 648.617 196.711 646.75C196.711 644.85 196.311 643.217 195.511 641.85C194.744 640.45 193.677 639.367 192.311 638.6C190.977 637.833 189.461 637.45 187.761 637.45C186.094 637.45 184.577 637.833 183.211 638.6C181.877 639.367 180.811 640.45 180.011 641.85C179.244 643.217 178.861 644.85 178.861 646.75C178.861 648.617 179.244 650.267 180.011 651.7C180.811 653.1 181.877 654.183 183.211 654.95C184.577 655.717 186.094 656.1 187.761 656.1ZM208.193 660V633.5H212.993V660H208.193ZM210.593 628.4C209.659 628.4 208.876 628.1 208.243 627.5C207.643 626.9 207.343 626.167 207.343 625.3C207.343 624.4 207.643 623.65 208.243 623.05C208.876 622.45 209.659 622.15 210.593 622.15C211.526 622.15 212.293 622.45 212.893 623.05C213.526 623.617 213.843 624.333 213.843 625.2C213.843 626.1 213.543 626.867 212.943 627.5C212.343 628.1 211.559 628.4 210.593 628.4ZM222.157 660V633.5H226.757V640.7L226.307 638.9C227.041 637.067 228.274 635.667 230.007 634.7C231.741 633.733 233.874 633.25 236.407 633.25V637.9C236.207 637.867 236.007 637.85 235.807 637.85C235.641 637.85 235.474 637.85 235.307 637.85C232.741 637.85 230.707 638.617 229.207 640.15C227.707 641.683 226.957 643.9 226.957 646.8V660H222.157ZM253.879 660.3C251.046 660.3 248.546 659.717 246.379 658.55C244.246 657.383 242.579 655.783 241.379 653.75C240.213 651.717 239.629 649.383 239.629 646.75C239.629 644.117 240.196 641.783 241.329 639.75C242.496 637.717 244.079 636.133 246.079 635C248.113 633.833 250.396 633.25 252.929 633.25C255.496 633.25 257.763 633.817 259.729 634.95C261.696 636.083 263.229 637.683 264.329 639.75C265.463 641.783 266.029 644.167 266.029 646.9C266.029 647.1 266.013 647.333 265.979 647.6C265.979 647.867 265.963 648.117 265.929 648.35H243.379V644.9H263.429L261.479 646.1C261.513 644.4 261.163 642.883 260.429 641.55C259.696 640.217 258.679 639.183 257.379 638.45C256.113 637.683 254.629 637.3 252.929 637.3C251.263 637.3 249.779 637.683 248.479 638.45C247.179 639.183 246.163 640.233 245.429 641.6C244.696 642.933 244.329 644.467 244.329 646.2V647C244.329 648.767 244.729 650.35 245.529 651.75C246.363 653.117 247.513 654.183 248.979 654.95C250.446 655.717 252.129 656.1 254.029 656.1C255.596 656.1 257.013 655.833 258.279 655.3C259.579 654.767 260.713 653.967 261.679 652.9L264.329 656C263.129 657.4 261.629 658.467 259.829 659.2C258.063 659.933 256.079 660.3 253.879 660.3ZM269.9 660V656.9L286.9 635.8L287.85 637.45H270.2V633.5H291.7V636.65L274.7 657.7L273.6 656.05H292.1V660H269.9ZM296.19 648.35V644.2H309.64V648.35H296.19ZM323.346 660L311.746 633.5H316.746L327.046 657.5H324.646L335.146 633.5H339.846L328.246 660H323.346ZM354.943 660.3C352.276 660.3 349.91 659.717 347.843 658.55C345.776 657.383 344.143 655.783 342.943 653.75C341.743 651.683 341.143 649.35 341.143 646.75C341.143 644.117 341.743 641.783 342.943 639.75C344.143 637.717 345.776 636.133 347.843 635C349.91 633.833 352.276 633.25 354.943 633.25C357.576 633.25 359.926 633.833 361.993 635C364.093 636.133 365.726 637.717 366.893 639.75C368.093 641.75 368.693 644.083 368.693 646.75C368.693 649.383 368.093 651.717 366.893 653.75C365.726 655.783 364.093 657.383 361.993 658.55C359.926 659.717 357.576 660.3 354.943 660.3ZM354.943 656.1C356.643 656.1 358.16 655.717 359.493 654.95C360.86 654.183 361.926 653.1 362.693 651.7C363.46 650.267 363.843 648.617 363.843 646.75C363.843 644.85 363.46 643.217 362.693 641.85C361.926 640.45 360.86 639.367 359.493 638.6C358.16 637.833 356.643 637.45 354.943 637.45C353.243 637.45 351.726 637.833 350.393 638.6C349.06 639.367 347.993 640.45 347.193 641.85C346.393 643.217 345.993 644.85 345.993 646.75C345.993 648.617 346.393 650.267 347.193 651.7C347.993 653.1 349.06 654.183 350.393 654.95C351.726 655.717 353.243 656.1 354.943 656.1ZM386.481 660.3C384.215 660.3 382.215 659.883 380.481 659.05C378.781 658.217 377.448 656.95 376.481 655.25C375.548 653.517 375.081 651.35 375.081 648.75V633.5H379.881V648.2C379.881 650.8 380.498 652.75 381.731 654.05C382.998 655.35 384.765 656 387.031 656C388.698 656 390.148 655.667 391.381 655C392.615 654.3 393.565 653.3 394.231 652C394.898 650.667 395.231 649.067 395.231 647.2V633.5H400.031V660H395.481V652.85L396.231 654.75C395.365 656.517 394.065 657.883 392.331 658.85C390.598 659.817 388.648 660.3 386.481 660.3ZM416.769 660.3C414.569 660.3 412.469 660 410.469 659.4C408.502 658.8 406.952 658.067 405.819 657.2L407.819 653.4C408.952 654.167 410.352 654.817 412.019 655.35C413.686 655.883 415.386 656.15 417.119 656.15C419.352 656.15 420.952 655.833 421.919 655.2C422.919 654.567 423.419 653.683 423.419 652.55C423.419 651.717 423.119 651.067 422.519 650.6C421.919 650.133 421.119 649.783 420.119 649.55C419.152 649.317 418.069 649.117 416.869 648.95C415.669 648.75 414.469 648.517 413.269 648.25C412.069 647.95 410.969 647.55 409.969 647.05C408.969 646.517 408.169 645.8 407.569 644.9C406.969 643.967 406.669 642.733 406.669 641.2C406.669 639.6 407.119 638.2 408.019 637C408.919 635.8 410.186 634.883 411.819 634.25C413.486 633.583 415.452 633.25 417.719 633.25C419.452 633.25 421.202 633.467 422.969 633.9C424.769 634.3 426.236 634.883 427.369 635.65L425.319 639.45C424.119 638.65 422.869 638.1 421.569 637.8C420.269 637.5 418.969 637.35 417.669 637.35C415.569 637.35 414.002 637.7 412.969 638.4C411.936 639.067 411.419 639.933 411.419 641C411.419 641.9 411.719 642.6 412.319 643.1C412.952 643.567 413.752 643.933 414.719 644.2C415.719 644.467 416.819 644.7 418.019 644.9C419.219 645.067 420.419 645.3 421.619 645.6C422.819 645.867 423.902 646.25 424.869 646.75C425.869 647.25 426.669 647.95 427.269 648.85C427.902 649.75 428.219 650.95 428.219 652.45C428.219 654.05 427.752 655.433 426.819 656.6C425.886 657.767 424.569 658.683 422.869 659.35C421.169 659.983 419.136 660.3 416.769 660.3Z" fill="#AB5B5B"/>
<path d="M95 666.25H429.669V668.75H95V666.25Z" fill="#AB5B5B"/>
</svg>
